<?xml version="1.0" encoding="UTF-8"?>
<svg xmlns="http://www.w3.org/2000/svg" xmlns:xlink="http://www.w3.org/1999/xlink" width="600pt" height="600pt" viewBox="0 0 600 600" version="1.1">
<g id="surface1">
<path style="fill-rule:nonzero;fill:rgb(55.294118%,82.745098%,78.039216%);fill-opacity:1;stroke-width:0.00291319;stroke-linecap:butt;stroke-linejoin:miter;stroke:rgb(55.294118%,82.745098%,78.039216%);stroke-opacity:1;stroke-miterlimit:10;" d="M 0.0145688 -0.00000300428 C 0.0145688 0.00804101 0.00804101 0.0145688 -0.00000300428 0.0145688 C -0.00804702 0.0145688 -0.0145676 0.00804101 -0.0145676 -0.00000300428 C -0.0145676 -0.00804702 -0.00804702 -0.0145676 -0.00000300428 -0.0145676 C 0.00804101 -0.0145676 0.0145688 -0.00804702 0.0145688 -0.00000300428 Z M 0.0145688 -0.00000300428 " transform="matrix(548.73889,0,0,548.73889,25.630555,25.630555)"/>
<path style="fill-rule:nonzero;fill:rgb(84.359862%,63.575548%,68.696655%);fill-opacity:1;stroke-width:0.00291319;stroke-linecap:butt;stroke-linejoin:miter;stroke:rgb(84.359862%,63.575548%,68.696655%);stroke-opacity:1;stroke-miterlimit:10;" d="M 0.0145688 -0.00000300428 C 0.0145688 0.00804101 0.00804101 0.0145688 -0.00000300428 0.0145688 C -0.00804702 0.0145688 -0.0145676 0.00804101 -0.0145676 -0.00000300428 C -0.0145676 -0.00804702 -0.00804702 -0.0145676 -0.00000300428 -0.0145676 C 0.00804101 -0.0145676 0.0145688 -0.00804702 0.0145688 -0.00000300428 Z M 0.0145688 -0.00000300428 " transform="matrix(548.73889,0,0,548.73889,25.630555,25.630555)"/>
<path style="fill-rule:nonzero;fill:rgb(56.816609%,66.774318%,77.524029%);fill-opacity:1;stroke-width:0.00291319;stroke-linecap:butt;stroke-linejoin:miter;stroke:rgb(56.816609%,66.774318%,77.524029%);stroke-opacity:1;stroke-miterlimit:10;" d="M 0.0145688 -0.00000300428 C 0.0145688 0.00804101 0.00804101 0.0145688 -0.00000300428 0.0145688 C -0.00804702 0.0145688 -0.0145676 0.00804101 -0.0145676 -0.00000300428 C -0.0145676 -0.00804702 -0.00804702 -0.0145676 -0.00000300428 -0.0145676 C 0.00804101 -0.0145676 0.0145688 -0.00804702 0.0145688 -0.00000300428 Z M 0.0145688 -0.00000300428 " transform="matrix(548.73889,0,0,548.73889,25.630555,25.630555)"/>
<path style="fill-rule:nonzero;fill:rgb(91.249519%,75.109573%,39.184929%);fill-opacity:1;stroke-width:0.00291319;stroke-linecap:butt;stroke-linejoin:miter;stroke:rgb(91.249519%,75.109573%,39.184929%);stroke-opacity:1;stroke-miterlimit:10;" d="M 0.0145688 -0.00000300428 C 0.0145688 0.00804101 0.00804101 0.0145688 -0.00000300428 0.0145688 C -0.00804702 0.0145688 -0.0145676 0.00804101 -0.0145676 -0.00000300428 C -0.0145676 -0.00804702 -0.00804702 -0.0145676 -0.00000300428 -0.0145676 C 0.00804101 -0.0145676 0.0145688 -0.00804702 0.0145688 -0.00000300428 Z M 0.0145688 -0.00000300428 " transform="matrix(548.73889,0,0,548.73889,25.630555,25.630555)"/>
<path style="fill-rule:nonzero;fill:rgb(55.294118%,82.745098%,78.039216%);fill-opacity:1;stroke-width:0.00291319;stroke-linecap:butt;stroke-linejoin:miter;stroke:rgb(55.294118%,82.745098%,78.039216%);stroke-opacity:1;stroke-miterlimit:10;" d="M 0.0145688 -0.00000300428 C 0.0145688 0.00804101 0.00804101 0.0145688 -0.00000300428 0.0145688 C -0.00804702 0.0145688 -0.0145676 0.00804101 -0.0145676 -0.00000300428 C -0.0145676 -0.00804702 -0.00804702 -0.0145676 -0.00000300428 -0.0145676 C 0.00804101 -0.0145676 0.0145688 -0.00804702 0.0145688 -0.00000300428 Z M 0.0145688 -0.00000300428 " transform="matrix(548.73889,0,0,548.73889,25.630555,25.630555)"/>
<path style="fill-rule:nonzero;fill:rgb(91.249519%,75.109573%,39.184929%);fill-opacity:1;stroke-width:0.00291319;stroke-linecap:butt;stroke-linejoin:miter;stroke:rgb(91.249519%,75.109573%,39.184929%);stroke-opacity:1;stroke-miterlimit:10;" d="M 0.0145688 -0.00000300428 C 0.0145688 0.00804101 0.00804101 0.0145688 -0.00000300428 0.0145688 C -0.00804702 0.0145688 -0.0145676 0.00804101 -0.0145676 -0.00000300428 C -0.0145676 -0.00804702 -0.00804702 -0.0145676 -0.00000300428 -0.0145676 C 0.00804101 -0.0145676 0.0145688 -0.00804702 0.0145688 -0.00000300428 Z M 0.0145688 -0.00000300428 " transform="matrix(548.73889,0,0,548.73889,25.630555,25.630555)"/>
<path style="fill-rule:nonzero;fill:rgb(56.816609%,66.774318%,77.524029%);fill-opacity:1;stroke-width:0.00291319;stroke-linecap:butt;stroke-linejoin:miter;stroke:rgb(56.816609%,66.774318%,77.524029%);stroke-opacity:1;stroke-miterlimit:10;" d="M 0.0145688 -0.00000300428 C 0.0145688 0.00804101 0.00804101 0.0145688 -0.00000300428 0.0145688 C -0.00804702 0.0145688 -0.0145676 0.00804101 -0.0145676 -0.00000300428 C -0.0145676 -0.00804702 -0.00804702 -0.0145676 -0.00000300428 -0.0145676 C 0.00804101 -0.0145676 0.0145688 -0.00804702 0.0145688 -0.00000300428 Z M 0.0145688 -0.00000300428 " transform="matrix(548.73889,0,0,548.73889,25.630555,25.630555)"/>
<path style="fill-rule:nonzero;fill:rgb(55.294118%,82.745098%,78.039216%);fill-opacity:1;stroke-width:0.00291319;stroke-linecap:butt;stroke-linejoin:miter;stroke:rgb(55.294118%,82.745098%,78.039216%);stroke-opacity:1;stroke-miterlimit:10;" d="M 0.0145688 -0.00000300428 C 0.0145688 0.00804101 0.00804101 0.0145688 -0.00000300428 0.0145688 C -0.00804702 0.0145688 -0.0145676 0.00804101 -0.0145676 -0.00000300428 C -0.0145676 -0.00804702 -0.00804702 -0.0145676 -0.00000300428 -0.0145676 C 0.00804101 -0.0145676 0.0145688 -0.00804702 0.0145688 -0.00000300428 Z M 0.0145688 -0.00000300428 " transform="matrix(548.73889,0,0,548.73889,25.630555,25.630555)"/>
<path style="fill-rule:nonzero;fill:rgb(55.294118%,82.745098%,78.039216%);fill-opacity:1;stroke-width:0.00291319;stroke-linecap:butt;stroke-linejoin:miter;stroke:rgb(55.294118%,82.745098%,78.039216%);stroke-opacity:1;stroke-miterlimit:10;" d="M 0.0145688 -0.00000300428 C 0.0145688 0.00804101 0.00804101 0.0145688 -0.00000300428 0.0145688 C -0.00804702 0.0145688 -0.0145676 0.00804101 -0.0145676 -0.00000300428 C -0.0145676 -0.00804702 -0.00804702 -0.0145676 -0.00000300428 -0.0145676 C 0.00804101 -0.0145676 0.0145688 -0.00804702 0.0145688 -0.00000300428 Z M 0.0145688 -0.00000300428 " transform="matrix(548.73889,0,0,548.73889,25.630555,25.630555)"/>
<path style="fill-rule:nonzero;fill:rgb(55.294118%,82.745098%,78.039216%);fill-opacity:1;stroke-width:0.00291319;stroke-linecap:butt;stroke-linejoin:miter;stroke:rgb(55.294118%,82.745098%,78.039216%);stroke-opacity:1;stroke-miterlimit:10;" d="M 0.0145688 -0.00000300428 C 0.0145688 0.00804101 0.00804101 0.0145688 -0.00000300428 0.0145688 C -0.00804702 0.0145688 -0.0145676 0.00804101 -0.0145676 -0.00000300428 C -0.0145676 -0.00804702 -0.00804702 -0.0145676 -0.00000300428 -0.0145676 C 0.00804101 -0.0145676 0.0145688 -0.00804702 0.0145688 -0.00000300428 Z M 0.0145688 -0.00000300428 " transform="matrix(548.73889,0,0,548.73889,25.630555,25.630555)"/>
<path style="fill-rule:nonzero;fill:rgb(91.249519%,75.109573%,39.184929%);fill-opacity:1;stroke-width:0.00291319;stroke-linecap:butt;stroke-linejoin:miter;stroke:rgb(91.249519%,75.109573%,39.184929%);stroke-opacity:1;stroke-miterlimit:10;" d="M 0.0145688 -0.00000300428 C 0.0145688 0.00804101 0.00804101 0.0145688 -0.00000300428 0.0145688 C -0.00804702 0.0145688 -0.0145676 0.00804101 -0.0145676 -0.00000300428 C -0.0145676 -0.00804702 -0.00804702 -0.0145676 -0.00000300428 -0.0145676 C 0.00804101 -0.0145676 0.0145688 -0.00804702 0.0145688 -0.00000300428 Z M 0.0145688 -0.00000300428 " transform="matrix(548.73889,0,0,548.73889,25.630555,25.630555)"/>
<path style="fill-rule:nonzero;fill:rgb(55.294118%,82.745098%,78.039216%);fill-opacity:1;stroke-width:0.00291319;stroke-linecap:butt;stroke-linejoin:miter;stroke:rgb(55.294118%,82.745098%,78.039216%);stroke-opacity:1;stroke-miterlimit:10;" d="M 0.0145688 -0.00000300428 C 0.0145688 0.00804101 0.00804101 0.0145688 -0.00000300428 0.0145688 C -0.00804702 0.0145688 -0.0145676 0.00804101 -0.0145676 -0.00000300428 C -0.0145676 -0.00804702 -0.00804702 -0.0145676 -0.00000300428 -0.0145676 C 0.00804101 -0.0145676 0.0145688 -0.00804702 0.0145688 -0.00000300428 Z M 0.0145688 -0.00000300428 " transform="matrix(548.73889,0,0,548.73889,25.630555,25.630555)"/>
<path style="fill-rule:nonzero;fill:rgb(90.965013%,82.222222%,76.45521%);fill-opacity:1;stroke-width:0.00291319;stroke-linecap:butt;stroke-linejoin:miter;stroke:rgb(90.965013%,82.222222%,76.45521%);stroke-opacity:1;stroke-miterlimit:10;" d="M 0.0145688 -0.00000300428 C 0.0145688 0.00804101 0.00804101 0.0145688 -0.00000300428 0.0145688 C -0.00804702 0.0145688 -0.0145676 0.00804101 -0.0145676 -0.00000300428 C -0.0145676 -0.00804702 -0.00804702 -0.0145676 -0.00000300428 -0.0145676 C 0.00804101 -0.0145676 0.0145688 -0.00804702 0.0145688 -0.00000300428 Z M 0.0145688 -0.00000300428 " transform="matrix(548.73889,0,0,548.73889,25.630555,25.630555)"/>
<path style="fill-rule:nonzero;fill:rgb(56.816609%,66.774318%,77.524029%);fill-opacity:1;stroke-width:0.00291319;stroke-linecap:butt;stroke-linejoin:miter;stroke:rgb(56.816609%,66.774318%,77.524029%);stroke-opacity:1;stroke-miterlimit:10;" d="M 0.0145688 -0.00000300428 C 0.0145688 0.00804101 0.00804101 0.0145688 -0.00000300428 0.0145688 C -0.00804702 0.0145688 -0.0145676 0.00804101 -0.0145676 -0.00000300428 C -0.0145676 -0.00804702 -0.00804702 -0.0145676 -0.00000300428 -0.0145676 C 0.00804101 -0.0145676 0.0145688 -0.00804702 0.0145688 -0.00000300428 Z M 0.0145688 -0.00000300428 " transform="matrix(548.73889,0,0,548.73889,25.630555,25.630555)"/>
<path style="fill-rule:nonzero;fill:rgb(90.965013%,82.222222%,76.45521%);fill-opacity:1;stroke-width:0.00291319;stroke-linecap:butt;stroke-linejoin:miter;stroke:rgb(90.965013%,82.222222%,76.45521%);stroke-opacity:1;stroke-miterlimit:10;" d="M 0.0145688 -0.00000300428 C 0.0145688 0.00804101 0.00804101 0.0145688 -0.00000300428 0.0145688 C -0.00804702 0.0145688 -0.0145676 0.00804101 -0.0145676 -0.00000300428 C -0.0145676 -0.00804702 -0.00804702 -0.0145676 -0.00000300428 -0.0145676 C 0.00804101 -0.0145676 0.0145688 -0.00804702 0.0145688 -0.00000300428 Z M 0.0145688 -0.00000300428 " transform="matrix(548.73889,0,0,548.73889,25.630555,25.630555)"/>
<path style="fill-rule:nonzero;fill:rgb(56.816609%,66.774318%,77.524029%);fill-opacity:1;stroke-width:0.00291319;stroke-linecap:butt;stroke-linejoin:miter;stroke:rgb(56.816609%,66.774318%,77.524029%);stroke-opacity:1;stroke-miterlimit:10;" d="M 0.0145688 -0.00000300428 C 0.0145688 0.00804101 0.00804101 0.0145688 -0.00000300428 0.0145688 C -0.00804702 0.0145688 -0.0145676 0.00804101 -0.0145676 -0.00000300428 C -0.0145676 -0.00804702 -0.00804702 -0.0145676 -0.00000300428 -0.0145676 C 0.00804101 -0.0145676 0.0145688 -0.00804702 0.0145688 -0.00000300428 Z M 0.0145688 -0.00000300428 " transform="matrix(548.73889,0,0,548.73889,25.630555,25.630555)"/>
<path style="fill-rule:nonzero;fill:rgb(55.294118%,82.745098%,78.039216%);fill-opacity:1;stroke-width:0.00291319;stroke-linecap:butt;stroke-linejoin:miter;stroke:rgb(55.294118%,82.745098%,78.039216%);stroke-opacity:1;stroke-miterlimit:10;" d="M 0.0145688 -0.00000300428 C 0.0145688 0.00804101 0.00804101 0.0145688 -0.00000300428 0.0145688 C -0.00804702 0.0145688 -0.0145676 0.00804101 -0.0145676 -0.00000300428 C -0.0145676 -0.00804702 -0.00804702 -0.0145676 -0.00000300428 -0.0145676 C 0.00804101 -0.0145676 0.0145688 -0.00804702 0.0145688 -0.00000300428 Z M 0.0145688 -0.00000300428 " transform="matrix(548.73889,0,0,548.73889,25.630555,25.630555)"/>
<path style="fill-rule:nonzero;fill:rgb(83.537101%,80.307574%,83.590927%);fill-opacity:1;stroke-width:0.00291319;stroke-linecap:butt;stroke-linejoin:miter;stroke:rgb(83.537101%,80.307574%,83.590927%);stroke-opacity:1;stroke-miterlimit:10;" d="M 0.0145688 -0.00000300428 C 0.0145688 0.00804101 0.00804101 0.0145688 -0.00000300428 0.0145688 C -0.00804702 0.0145688 -0.0145676 0.00804101 -0.0145676 -0.00000300428 C -0.0145676 -0.00804702 -0.00804702 -0.0145676 -0.00000300428 -0.0145676 C 0.00804101 -0.0145676 0.0145688 -0.00804702 0.0145688 -0.00000300428 Z M 0.0145688 -0.00000300428 " transform="matrix(548.73889,0,0,548.73889,25.630555,25.630555)"/>
<path style="fill-rule:nonzero;fill:rgb(90.965013%,82.222222%,76.45521%);fill-opacity:1;stroke-width:0.00291319;stroke-linecap:butt;stroke-linejoin:miter;stroke:rgb(90.965013%,82.222222%,76.45521%);stroke-opacity:1;stroke-miterlimit:10;" d="M 0.0145688 -0.00000300428 C 0.0145688 0.00804101 0.00804101 0.0145688 -0.00000300428 0.0145688 C -0.00804702 0.0145688 -0.0145676 0.00804101 -0.0145676 -0.00000300428 C -0.0145676 -0.00804702 -0.00804702 -0.0145676 -0.00000300428 -0.0145676 C 0.00804101 -0.0145676 0.0145688 -0.00804702 0.0145688 -0.00000300428 Z M 0.0145688 -0.00000300428 " transform="matrix(548.73889,0,0,548.73889,25.630555,25.630555)"/>
<path style="fill-rule:nonzero;fill:rgb(77.416378%,74.878893%,75.963091%);fill-opacity:1;stroke-width:0.00291319;stroke-linecap:butt;stroke-linejoin:miter;stroke:rgb(77.416378%,74.878893%,75.963091%);stroke-opacity:1;stroke-miterlimit:10;" d="M 0.0145688 -0.00000300428 C 0.0145688 0.00804101 0.00804101 0.0145688 -0.00000300428 0.0145688 C -0.00804702 0.0145688 -0.0145676 0.00804101 -0.0145676 -0.00000300428 C -0.0145676 -0.00804702 -0.00804702 -0.0145676 -0.00000300428 -0.0145676 C 0.00804101 -0.0145676 0.0145688 -0.00804702 0.0145688 -0.00000300428 Z M 0.0145688 -0.00000300428 " transform="matrix(548.73889,0,0,548.73889,25.630555,25.630555)"/>
<path style="fill-rule:nonzero;fill:rgb(83.537101%,80.307574%,83.590927%);fill-opacity:1;stroke-width:0.00291319;stroke-linecap:butt;stroke-linejoin:miter;stroke:rgb(83.537101%,80.307574%,83.590927%);stroke-opacity:1;stroke-miterlimit:10;" d="M 0.0145688 -0.00000300428 C 0.0145688 0.00804101 0.00804101 0.0145688 -0.00000300428 0.0145688 C -0.00804702 0.0145688 -0.0145676 0.00804101 -0.0145676 -0.00000300428 C -0.0145676 -0.00804702 -0.00804702 -0.0145676 -0.00000300428 -0.0145676 C 0.00804101 -0.0145676 0.0145688 -0.00804702 0.0145688 -0.00000300428 Z M 0.0145688 -0.00000300428 " transform="matrix(548.73889,0,0,548.73889,25.630555,25.630555)"/>
<path style="fill-rule:nonzero;fill:rgb(55.294118%,82.745098%,78.039216%);fill-opacity:1;stroke-width:0.00291319;stroke-linecap:butt;stroke-linejoin:miter;stroke:rgb(55.294118%,82.745098%,78.039216%);stroke-opacity:1;stroke-miterlimit:10;" d="M 0.0145688 -0.00000300428 C 0.0145688 0.00804101 0.00804101 0.0145688 -0.00000300428 0.0145688 C -0.00804702 0.0145688 -0.0145676 0.00804101 -0.0145676 -0.00000300428 C -0.0145676 -0.00804702 -0.00804702 -0.0145676 -0.00000300428 -0.0145676 C 0.00804101 -0.0145676 0.0145688 -0.00804702 0.0145688 -0.00000300428 Z M 0.0145688 -0.00000300428 " transform="matrix(548.73889,0,0,548.73889,25.630555,25.630555)"/>
<path style="fill-rule:nonzero;fill:rgb(55.294118%,82.745098%,78.039216%);fill-opacity:1;stroke-width:0.00291319;stroke-linecap:butt;stroke-linejoin:miter;stroke:rgb(55.294118%,82.745098%,78.039216%);stroke-opacity:1;stroke-miterlimit:10;" d="M 0.0145688 -0.00000300428 C 0.0145688 0.00804101 0.00804101 0.0145688 -0.00000300428 0.0145688 C -0.00804702 0.0145688 -0.0145676 0.00804101 -0.0145676 -0.00000300428 C -0.0145676 -0.00804702 -0.00804702 -0.0145676 -0.00000300428 -0.0145676 C 0.00804101 -0.0145676 0.0145688 -0.00804702 0.0145688 -0.00000300428 Z M 0.0145688 -0.00000300428 " transform="matrix(548.73889,0,0,548.73889,25.630555,25.630555)"/>
<path style="fill-rule:nonzero;fill:rgb(55.294118%,82.745098%,78.039216%);fill-opacity:1;stroke-width:0.00291319;stroke-linecap:butt;stroke-linejoin:miter;stroke:rgb(55.294118%,82.745098%,78.039216%);stroke-opacity:1;stroke-miterlimit:10;" d="M 0.0145688 -0.00000300428 C 0.0145688 0.00804101 0.00804101 0.0145688 -0.00000300428 0.0145688 C -0.00804702 0.0145688 -0.0145676 0.00804101 -0.0145676 -0.00000300428 C -0.0145676 -0.00804702 -0.00804702 -0.0145676 -0.00000300428 -0.0145676 C 0.00804101 -0.0145676 0.0145688 -0.00804702 0.0145688 -0.00000300428 Z M 0.0145688 -0.00000300428 " transform="matrix(548.73889,0,0,548.73889,25.630555,25.630555)"/>
<path style="fill-rule:nonzero;fill:rgb(55.294118%,82.745098%,78.039216%);fill-opacity:1;stroke-width:0.00291319;stroke-linecap:butt;stroke-linejoin:miter;stroke:rgb(55.294118%,82.745098%,78.039216%);stroke-opacity:1;stroke-miterlimit:10;" d="M 0.0145688 -0.00000300428 C 0.0145688 0.00804101 0.00804101 0.0145688 -0.00000300428 0.0145688 C -0.00804702 0.0145688 -0.0145676 0.00804101 -0.0145676 -0.00000300428 C -0.0145676 -0.00804702 -0.00804702 -0.0145676 -0.00000300428 -0.0145676 C 0.00804101 -0.0145676 0.0145688 -0.00804702 0.0145688 -0.00000300428 Z M 0.0145688 -0.00000300428 " transform="matrix(548.73889,0,0,548.73889,25.630555,25.630555)"/>
<path style="fill-rule:nonzero;fill:rgb(84.359862%,63.575548%,68.696655%);fill-opacity:1;stroke-width:0.00291319;stroke-linecap:butt;stroke-linejoin:miter;stroke:rgb(84.359862%,63.575548%,68.696655%);stroke-opacity:1;stroke-miterlimit:10;" d="M 0.0145688 -0.00000300428 C 0.0145688 0.00804101 0.00804101 0.0145688 -0.00000300428 0.0145688 C -0.00804702 0.0145688 -0.0145676 0.00804101 -0.0145676 -0.00000300428 C -0.0145676 -0.00804702 -0.00804702 -0.0145676 -0.00000300428 -0.0145676 C 0.00804101 -0.0145676 0.0145688 -0.00804702 0.0145688 -0.00000300428 Z M 0.0145688 -0.00000300428 " transform="matrix(548.73889,0,0,548.73889,25.630555,25.630555)"/>
<path style="fill-rule:nonzero;fill:rgb(90.965013%,82.222222%,76.45521%);fill-opacity:1;stroke-width:0.00291319;stroke-linecap:butt;stroke-linejoin:miter;stroke:rgb(90.965013%,82.222222%,76.45521%);stroke-opacity:1;stroke-miterlimit:10;" d="M 0.0145688 -0.00000300428 C 0.0145688 0.00804101 0.00804101 0.0145688 -0.00000300428 0.0145688 C -0.00804702 0.0145688 -0.0145676 0.00804101 -0.0145676 -0.00000300428 C -0.0145676 -0.00804702 -0.00804702 -0.0145676 -0.00000300428 -0.0145676 C 0.00804101 -0.0145676 0.0145688 -0.00804702 0.0145688 -0.00000300428 Z M 0.0145688 -0.00000300428 " transform="matrix(548.73889,0,0,548.73889,25.630555,25.630555)"/>
<path style="fill-rule:nonzero;fill:rgb(83.537101%,80.307574%,83.590927%);fill-opacity:1;stroke-width:0.00291319;stroke-linecap:butt;stroke-linejoin:miter;stroke:rgb(83.537101%,80.307574%,83.590927%);stroke-opacity:1;stroke-miterlimit:10;" d="M 0.0145688 -0.00000300428 C 0.0145688 0.00804101 0.00804101 0.0145688 -0.00000300428 0.0145688 C -0.00804702 0.0145688 -0.0145676 0.00804101 -0.0145676 -0.00000300428 C -0.0145676 -0.00804702 -0.00804702 -0.0145676 -0.00000300428 -0.0145676 C 0.00804101 -0.0145676 0.0145688 -0.00804702 0.0145688 -0.00000300428 Z M 0.0145688 -0.00000300428 " transform="matrix(548.73889,0,0,548.73889,25.630555,25.630555)"/>
<path style="fill-rule:nonzero;fill:rgb(55.294118%,82.745098%,78.039216%);fill-opacity:1;stroke-width:0.00291319;stroke-linecap:butt;stroke-linejoin:miter;stroke:rgb(55.294118%,82.745098%,78.039216%);stroke-opacity:1;stroke-miterlimit:10;" d="M 0.0145688 -0.00000300428 C 0.0145688 0.00804101 0.00804101 0.0145688 -0.00000300428 0.0145688 C -0.00804702 0.0145688 -0.0145676 0.00804101 -0.0145676 -0.00000300428 C -0.0145676 -0.00804702 -0.00804702 -0.0145676 -0.00000300428 -0.0145676 C 0.00804101 -0.0145676 0.0145688 -0.00804702 0.0145688 -0.00000300428 Z M 0.0145688 -0.00000300428 " transform="matrix(548.73889,0,0,548.73889,25.630555,25.630555)"/>
<path style="fill-rule:nonzero;fill:rgb(77.416378%,74.878893%,75.963091%);fill-opacity:1;stroke-width:0.00291319;stroke-linecap:butt;stroke-linejoin:miter;stroke:rgb(77.416378%,74.878893%,75.963091%);stroke-opacity:1;stroke-miterlimit:10;" d="M 0.0145688 -0.00000300428 C 0.0145688 0.00804101 0.00804101 0.0145688 -0.00000300428 0.0145688 C -0.00804702 0.0145688 -0.0145676 0.00804101 -0.0145676 -0.00000300428 C -0.0145676 -0.00804702 -0.00804702 -0.0145676 -0.00000300428 -0.0145676 C 0.00804101 -0.0145676 0.0145688 -0.00804702 0.0145688 -0.00000300428 Z M 0.0145688 -0.00000300428 " transform="matrix(548.73889,0,0,548.73889,25.630555,25.630555)"/>
<path style="fill-rule:nonzero;fill:rgb(77.416378%,74.878893%,75.963091%);fill-opacity:1;stroke-width:0.00291319;stroke-linecap:butt;stroke-linejoin:miter;stroke:rgb(77.416378%,74.878893%,75.963091%);stroke-opacity:1;stroke-miterlimit:10;" d="M 0.0145688 -0.00000300428 C 0.0145688 0.00804101 0.00804101 0.0145688 -0.00000300428 0.0145688 C -0.00804702 0.0145688 -0.0145676 0.00804101 -0.0145676 -0.00000300428 C -0.0145676 -0.00804702 -0.00804702 -0.0145676 -0.00000300428 -0.0145676 C 0.00804101 -0.0145676 0.0145688 -0.00804702 0.0145688 -0.00000300428 Z M 0.0145688 -0.00000300428 " transform="matrix(548.73889,0,0,548.73889,25.630555,25.630555)"/>
<path style="fill-rule:nonzero;fill:rgb(90.965013%,82.222222%,76.45521%);fill-opacity:1;stroke-width:0.00291319;stroke-linecap:butt;stroke-linejoin:miter;stroke:rgb(90.965013%,82.222222%,76.45521%);stroke-opacity:1;stroke-miterlimit:10;" d="M 0.0145688 -0.00000300428 C 0.0145688 0.00804101 0.00804101 0.0145688 -0.00000300428 0.0145688 C -0.00804702 0.0145688 -0.0145676 0.00804101 -0.0145676 -0.00000300428 C -0.0145676 -0.00804702 -0.00804702 -0.0145676 -0.00000300428 -0.0145676 C 0.00804101 -0.0145676 0.0145688 -0.00804702 0.0145688 -0.00000300428 Z M 0.0145688 -0.00000300428 " transform="matrix(548.73889,0,0,548.73889,25.630555,25.630555)"/>
<path style="fill-rule:nonzero;fill:rgb(56.816609%,66.774318%,77.524029%);fill-opacity:1;stroke-width:0.00291319;stroke-linecap:butt;stroke-linejoin:miter;stroke:rgb(56.816609%,66.774318%,77.524029%);stroke-opacity:1;stroke-miterlimit:10;" d="M 0.0145688 -0.00000300428 C 0.0145688 0.00804101 0.00804101 0.0145688 -0.00000300428 0.0145688 C -0.00804702 0.0145688 -0.0145676 0.00804101 -0.0145676 -0.00000300428 C -0.0145676 -0.00804702 -0.00804702 -0.0145676 -0.00000300428 -0.0145676 C 0.00804101 -0.0145676 0.0145688 -0.00804702 0.0145688 -0.00000300428 Z M 0.0145688 -0.00000300428 " transform="matrix(548.73889,0,0,548.73889,25.630555,25.630555)"/>
<path style="fill-rule:nonzero;fill:rgb(84.359862%,63.575548%,68.696655%);fill-opacity:1;stroke-width:0.00291319;stroke-linecap:butt;stroke-linejoin:miter;stroke:rgb(84.359862%,63.575548%,68.696655%);stroke-opacity:1;stroke-miterlimit:10;" d="M 0.0145688 -0.00000300428 C 0.0145688 0.00804101 0.00804101 0.0145688 -0.00000300428 0.0145688 C -0.00804702 0.0145688 -0.0145676 0.00804101 -0.0145676 -0.00000300428 C -0.0145676 -0.00804702 -0.00804702 -0.0145676 -0.00000300428 -0.0145676 C 0.00804101 -0.0145676 0.0145688 -0.00804702 0.0145688 -0.00000300428 Z M 0.0145688 -0.00000300428 " transform="matrix(548.73889,0,0,548.73889,25.630555,25.630555)"/>
<path style="fill-rule:nonzero;fill:rgb(90.965013%,82.222222%,76.45521%);fill-opacity:1;stroke-width:0.00291319;stroke-linecap:butt;stroke-linejoin:miter;stroke:rgb(90.965013%,82.222222%,76.45521%);stroke-opacity:1;stroke-miterlimit:10;" d="M 0.0145688 -0.00000300428 C 0.0145688 0.00804101 0.00804101 0.0145688 -0.00000300428 0.0145688 C -0.00804702 0.0145688 -0.0145676 0.00804101 -0.0145676 -0.00000300428 C -0.0145676 -0.00804702 -0.00804702 -0.0145676 -0.00000300428 -0.0145676 C 0.00804101 -0.0145676 0.0145688 -0.00804702 0.0145688 -0.00000300428 Z M 0.0145688 -0.00000300428 " transform="matrix(548.73889,0,0,548.73889,25.630555,25.630555)"/>
<path style="fill-rule:nonzero;fill:rgb(77.416378%,74.878893%,75.963091%);fill-opacity:1;stroke-width:0.00291319;stroke-linecap:butt;stroke-linejoin:miter;stroke:rgb(77.416378%,74.878893%,75.963091%);stroke-opacity:1;stroke-miterlimit:10;" d="M 0.0145688 -0.00000300428 C 0.0145688 0.00804101 0.00804101 0.0145688 -0.00000300428 0.0145688 C -0.00804702 0.0145688 -0.0145676 0.00804101 -0.0145676 -0.00000300428 C -0.0145676 -0.00804702 -0.00804702 -0.0145676 -0.00000300428 -0.0145676 C 0.00804101 -0.0145676 0.0145688 -0.00804702 0.0145688 -0.00000300428 Z M 0.0145688 -0.00000300428 " transform="matrix(548.73889,0,0,548.73889,25.630555,25.630555)"/>
<path style="fill-rule:nonzero;fill:rgb(77.416378%,74.878893%,75.963091%);fill-opacity:1;stroke-width:0.00291319;stroke-linecap:butt;stroke-linejoin:miter;stroke:rgb(77.416378%,74.878893%,75.963091%);stroke-opacity:1;stroke-miterlimit:10;" d="M 0.0145688 -0.00000300428 C 0.0145688 0.00804101 0.00804101 0.0145688 -0.00000300428 0.0145688 C -0.00804702 0.0145688 -0.0145676 0.00804101 -0.0145676 -0.00000300428 C -0.0145676 -0.00804702 -0.00804702 -0.0145676 -0.00000300428 -0.0145676 C 0.00804101 -0.0145676 0.0145688 -0.00804702 0.0145688 -0.00000300428 Z M 0.0145688 -0.00000300428 " transform="matrix(548.73889,0,0,548.73889,25.630555,25.630555)"/>
<path style="fill-rule:nonzero;fill:rgb(84.359862%,63.575548%,68.696655%);fill-opacity:1;stroke-width:0.00291319;stroke-linecap:butt;stroke-linejoin:miter;stroke:rgb(84.359862%,63.575548%,68.696655%);stroke-opacity:1;stroke-miterlimit:10;" d="M 0.0145688 -0.00000300428 C 0.0145688 0.00804101 0.00804101 0.0145688 -0.00000300428 0.0145688 C -0.00804702 0.0145688 -0.0145676 0.00804101 -0.0145676 -0.00000300428 C -0.0145676 -0.00804702 -0.00804702 -0.0145676 -0.00000300428 -0.0145676 C 0.00804101 -0.0145676 0.0145688 -0.00804702 0.0145688 -0.00000300428 Z M 0.0145688 -0.00000300428 " transform="matrix(548.73889,0,0,548.73889,25.630555,25.630555)"/>
<path style="fill-rule:nonzero;fill:rgb(90.965013%,82.222222%,76.45521%);fill-opacity:1;stroke-width:0.00291319;stroke-linecap:butt;stroke-linejoin:miter;stroke:rgb(90.965013%,82.222222%,76.45521%);stroke-opacity:1;stroke-miterlimit:10;" d="M 0.0145688 -0.00000300428 C 0.0145688 0.00804101 0.00804101 0.0145688 -0.00000300428 0.0145688 C -0.00804702 0.0145688 -0.0145676 0.00804101 -0.0145676 -0.00000300428 C -0.0145676 -0.00804702 -0.00804702 -0.0145676 -0.00000300428 -0.0145676 C 0.00804101 -0.0145676 0.0145688 -0.00804702 0.0145688 -0.00000300428 Z M 0.0145688 -0.00000300428 " transform="matrix(548.73889,0,0,548.73889,25.630555,25.630555)"/>
<path style="fill-rule:nonzero;fill:rgb(56.816609%,66.774318%,77.524029%);fill-opacity:1;stroke-width:0.00291319;stroke-linecap:butt;stroke-linejoin:miter;stroke:rgb(56.816609%,66.774318%,77.524029%);stroke-opacity:1;stroke-miterlimit:10;" d="M 0.0145688 -0.00000300428 C 0.0145688 0.00804101 0.00804101 0.0145688 -0.00000300428 0.0145688 C -0.00804702 0.0145688 -0.0145676 0.00804101 -0.0145676 -0.00000300428 C -0.0145676 -0.00804702 -0.00804702 -0.0145676 -0.00000300428 -0.0145676 C 0.00804101 -0.0145676 0.0145688 -0.00804702 0.0145688 -0.00000300428 Z M 0.0145688 -0.00000300428 " transform="matrix(548.73889,0,0,548.73889,25.630555,25.630555)"/>
<path style="fill-rule:nonzero;fill:rgb(91.249519%,75.109573%,39.184929%);fill-opacity:1;stroke-width:0.00291319;stroke-linecap:butt;stroke-linejoin:miter;stroke:rgb(91.249519%,75.109573%,39.184929%);stroke-opacity:1;stroke-miterlimit:10;" d="M 0.0145688 -0.00000300428 C 0.0145688 0.00804101 0.00804101 0.0145688 -0.00000300428 0.0145688 C -0.00804702 0.0145688 -0.0145676 0.00804101 -0.0145676 -0.00000300428 C -0.0145676 -0.00804702 -0.00804702 -0.0145676 -0.00000300428 -0.0145676 C 0.00804101 -0.0145676 0.0145688 -0.00804702 0.0145688 -0.00000300428 Z M 0.0145688 -0.00000300428 " transform="matrix(548.73889,0,0,548.73889,25.630555,25.630555)"/>
<path style="fill-rule:nonzero;fill:rgb(55.294118%,82.745098%,78.039216%);fill-opacity:1;stroke-width:0.00291319;stroke-linecap:butt;stroke-linejoin:miter;stroke:rgb(55.294118%,82.745098%,78.039216%);stroke-opacity:1;stroke-miterlimit:10;" d="M 0.0145688 -0.00000300428 C 0.0145688 0.00804101 0.00804101 0.0145688 -0.00000300428 0.0145688 C -0.00804702 0.0145688 -0.0145676 0.00804101 -0.0145676 -0.00000300428 C -0.0145676 -0.00804702 -0.00804702 -0.0145676 -0.00000300428 -0.0145676 C 0.00804101 -0.0145676 0.0145688 -0.00804702 0.0145688 -0.00000300428 Z M 0.0145688 -0.00000300428 " transform="matrix(548.73889,0,0,548.73889,25.630555,25.630555)"/>
<path style="fill-rule:nonzero;fill:rgb(90.965013%,82.222222%,76.45521%);fill-opacity:1;stroke-width:0.00291319;stroke-linecap:butt;stroke-linejoin:miter;stroke:rgb(90.965013%,82.222222%,76.45521%);stroke-opacity:1;stroke-miterlimit:10;" d="M 0.0145688 -0.00000300428 C 0.0145688 0.00804101 0.00804101 0.0145688 -0.00000300428 0.0145688 C -0.00804702 0.0145688 -0.0145676 0.00804101 -0.0145676 -0.00000300428 C -0.0145676 -0.00804702 -0.00804702 -0.0145676 -0.00000300428 -0.0145676 C 0.00804101 -0.0145676 0.0145688 -0.00804702 0.0145688 -0.00000300428 Z M 0.0145688 -0.00000300428 " transform="matrix(548.73889,0,0,548.73889,25.630555,25.630555)"/>
<path style="fill-rule:nonzero;fill:rgb(90.965013%,82.222222%,76.45521%);fill-opacity:1;stroke-width:0.00291319;stroke-linecap:butt;stroke-linejoin:miter;stroke:rgb(90.965013%,82.222222%,76.45521%);stroke-opacity:1;stroke-miterlimit:10;" d="M 0.0145688 -0.00000300428 C 0.0145688 0.00804101 0.00804101 0.0145688 -0.00000300428 0.0145688 C -0.00804702 0.0145688 -0.0145676 0.00804101 -0.0145676 -0.00000300428 C -0.0145676 -0.00804702 -0.00804702 -0.0145676 -0.00000300428 -0.0145676 C 0.00804101 -0.0145676 0.0145688 -0.00804702 0.0145688 -0.00000300428 Z M 0.0145688 -0.00000300428 " transform="matrix(548.73889,0,0,548.73889,25.630555,25.630555)"/>
<path style="fill-rule:nonzero;fill:rgb(77.416378%,74.878893%,75.963091%);fill-opacity:1;stroke-width:0.00291319;stroke-linecap:butt;stroke-linejoin:miter;stroke:rgb(77.416378%,74.878893%,75.963091%);stroke-opacity:1;stroke-miterlimit:10;" d="M 0.0145688 -0.00000300428 C 0.0145688 0.00804101 0.00804101 0.0145688 -0.00000300428 0.0145688 C -0.00804702 0.0145688 -0.0145676 0.00804101 -0.0145676 -0.00000300428 C -0.0145676 -0.00804702 -0.00804702 -0.0145676 -0.00000300428 -0.0145676 C 0.00804101 -0.0145676 0.0145688 -0.00804702 0.0145688 -0.00000300428 Z M 0.0145688 -0.00000300428 " transform="matrix(548.73889,0,0,548.73889,25.630555,25.630555)"/>
<path style="fill-rule:nonzero;fill:rgb(84.359862%,63.575548%,68.696655%);fill-opacity:1;stroke-width:0.00291319;stroke-linecap:butt;stroke-linejoin:miter;stroke:rgb(84.359862%,63.575548%,68.696655%);stroke-opacity:1;stroke-miterlimit:10;" d="M 0.0145688 -0.00000300428 C 0.0145688 0.00804101 0.00804101 0.0145688 -0.00000300428 0.0145688 C -0.00804702 0.0145688 -0.0145676 0.00804101 -0.0145676 -0.00000300428 C -0.0145676 -0.00804702 -0.00804702 -0.0145676 -0.00000300428 -0.0145676 C 0.00804101 -0.0145676 0.0145688 -0.00804702 0.0145688 -0.00000300428 Z M 0.0145688 -0.00000300428 " transform="matrix(548.73889,0,0,548.73889,25.630555,25.630555)"/>
<path style="fill-rule:nonzero;fill:rgb(100%,92.941176%,43.529412%);fill-opacity:1;stroke-width:0.00291319;stroke-linecap:butt;stroke-linejoin:miter;stroke:rgb(100%,92.941176%,43.529412%);stroke-opacity:1;stroke-miterlimit:10;" d="M 0.0145688 -0.00000300428 C 0.0145688 0.00804101 0.00804101 0.0145688 -0.00000300428 0.0145688 C -0.00804702 0.0145688 -0.0145676 0.00804101 -0.0145676 -0.00000300428 C -0.0145676 -0.00804702 -0.00804702 -0.0145676 -0.00000300428 -0.0145676 C 0.00804101 -0.0145676 0.0145688 -0.00804702 0.0145688 -0.00000300428 Z M 0.0145688 -0.00000300428 " transform="matrix(548.73889,0,0,548.73889,25.630555,25.630555)"/>
<path style="fill-rule:nonzero;fill:rgb(56.816609%,66.774318%,77.524029%);fill-opacity:1;stroke-width:0.00291319;stroke-linecap:butt;stroke-linejoin:miter;stroke:rgb(56.816609%,66.774318%,77.524029%);stroke-opacity:1;stroke-miterlimit:10;" d="M 0.0145688 -0.00000300428 C 0.0145688 0.00804101 0.00804101 0.0145688 -0.00000300428 0.0145688 C -0.00804702 0.0145688 -0.0145676 0.00804101 -0.0145676 -0.00000300428 C -0.0145676 -0.00804702 -0.00804702 -0.0145676 -0.00000300428 -0.0145676 C 0.00804101 -0.0145676 0.0145688 -0.00804702 0.0145688 -0.00000300428 Z M 0.0145688 -0.00000300428 " transform="matrix(548.73889,0,0,548.73889,25.630555,25.630555)"/>
<path style="fill-rule:nonzero;fill:rgb(77.416378%,74.878893%,75.963091%);fill-opacity:1;stroke-width:0.00291319;stroke-linecap:butt;stroke-linejoin:miter;stroke:rgb(77.416378%,74.878893%,75.963091%);stroke-opacity:1;stroke-miterlimit:10;" d="M 0.0145688 -0.00000300428 C 0.0145688 0.00804101 0.00804101 0.0145688 -0.00000300428 0.0145688 C -0.00804702 0.0145688 -0.0145676 0.00804101 -0.0145676 -0.00000300428 C -0.0145676 -0.00804702 -0.00804702 -0.0145676 -0.00000300428 -0.0145676 C 0.00804101 -0.0145676 0.0145688 -0.00804702 0.0145688 -0.00000300428 Z M 0.0145688 -0.00000300428 " transform="matrix(548.73889,0,0,548.73889,25.630555,25.630555)"/>
<path style="fill-rule:nonzero;fill:rgb(100%,92.941176%,43.529412%);fill-opacity:1;stroke-width:0.00291319;stroke-linecap:butt;stroke-linejoin:miter;stroke:rgb(100%,92.941176%,43.529412%);stroke-opacity:1;stroke-miterlimit:10;" d="M 0.0145688 -0.00000300428 C 0.0145688 0.00804101 0.00804101 0.0145688 -0.00000300428 0.0145688 C -0.00804702 0.0145688 -0.0145676 0.00804101 -0.0145676 -0.00000300428 C -0.0145676 -0.00804702 -0.00804702 -0.0145676 -0.00000300428 -0.0145676 C 0.00804101 -0.0145676 0.0145688 -0.00804702 0.0145688 -0.00000300428 Z M 0.0145688 -0.00000300428 " transform="matrix(548.73889,0,0,548.73889,25.630555,25.630555)"/>
<path style="fill-rule:nonzero;fill:rgb(55.294118%,82.745098%,78.039216%);fill-opacity:1;stroke-width:0.00291319;stroke-linecap:butt;stroke-linejoin:miter;stroke:rgb(55.294118%,82.745098%,78.039216%);stroke-opacity:1;stroke-miterlimit:10;" d="M 0.0145688 -0.00000300428 C 0.0145688 0.00804101 0.00804101 0.0145688 -0.00000300428 0.0145688 C -0.00804702 0.0145688 -0.0145676 0.00804101 -0.0145676 -0.00000300428 C -0.0145676 -0.00804702 -0.00804702 -0.0145676 -0.00000300428 -0.0145676 C 0.00804101 -0.0145676 0.0145688 -0.00804702 0.0145688 -0.00000300428 Z M 0.0145688 -0.00000300428 " transform="matrix(548.73889,0,0,548.73889,25.630555,25.630555)"/>
<path style="fill-rule:nonzero;fill:rgb(55.294118%,82.745098%,78.039216%);fill-opacity:1;stroke-width:0.00291319;stroke-linecap:butt;stroke-linejoin:miter;stroke:rgb(55.294118%,82.745098%,78.039216%);stroke-opacity:1;stroke-miterlimit:10;" d="M 0.0145688 -0.00000300428 C 0.0145688 0.00804101 0.00804101 0.0145688 -0.00000300428 0.0145688 C -0.00804702 0.0145688 -0.0145676 0.00804101 -0.0145676 -0.00000300428 C -0.0145676 -0.00804702 -0.00804702 -0.0145676 -0.00000300428 -0.0145676 C 0.00804101 -0.0145676 0.0145688 -0.00804702 0.0145688 -0.00000300428 Z M 0.0145688 -0.00000300428 " transform="matrix(548.73889,0,0,548.73889,25.630555,25.630555)"/>
<path style="fill-rule:nonzero;fill:rgb(91.249519%,75.109573%,39.184929%);fill-opacity:1;stroke-width:0.00291319;stroke-linecap:butt;stroke-linejoin:miter;stroke:rgb(91.249519%,75.109573%,39.184929%);stroke-opacity:1;stroke-miterlimit:10;" d="M 0.0145688 -0.00000300428 C 0.0145688 0.00804101 0.00804101 0.0145688 -0.00000300428 0.0145688 C -0.00804702 0.0145688 -0.0145676 0.00804101 -0.0145676 -0.00000300428 C -0.0145676 -0.00804702 -0.00804702 -0.0145676 -0.00000300428 -0.0145676 C 0.00804101 -0.0145676 0.0145688 -0.00804702 0.0145688 -0.00000300428 Z M 0.0145688 -0.00000300428 " transform="matrix(548.73889,0,0,548.73889,25.630555,25.630555)"/>
<path style="fill-rule:nonzero;fill:rgb(100%,92.941176%,43.529412%);fill-opacity:1;stroke-width:0.00291319;stroke-linecap:butt;stroke-linejoin:miter;stroke:rgb(100%,92.941176%,43.529412%);stroke-opacity:1;stroke-miterlimit:10;" d="M 0.0145688 -0.00000300428 C 0.0145688 0.00804101 0.00804101 0.0145688 -0.00000300428 0.0145688 C -0.00804702 0.0145688 -0.0145676 0.00804101 -0.0145676 -0.00000300428 C -0.0145676 -0.00804702 -0.00804702 -0.0145676 -0.00000300428 -0.0145676 C 0.00804101 -0.0145676 0.0145688 -0.00804702 0.0145688 -0.00000300428 Z M 0.0145688 -0.00000300428 " transform="matrix(548.73889,0,0,548.73889,25.630555,25.630555)"/>
<path style="fill-rule:nonzero;fill:rgb(90.965013%,82.222222%,76.45521%);fill-opacity:1;stroke-width:0.00291319;stroke-linecap:butt;stroke-linejoin:miter;stroke:rgb(90.965013%,82.222222%,76.45521%);stroke-opacity:1;stroke-miterlimit:10;" d="M 0.0145688 -0.00000300428 C 0.0145688 0.00804101 0.00804101 0.0145688 -0.00000300428 0.0145688 C -0.00804702 0.0145688 -0.0145676 0.00804101 -0.0145676 -0.00000300428 C -0.0145676 -0.00804702 -0.00804702 -0.0145676 -0.00000300428 -0.0145676 C 0.00804101 -0.0145676 0.0145688 -0.00804702 0.0145688 -0.00000300428 Z M 0.0145688 -0.00000300428 " transform="matrix(548.73889,0,0,548.73889,25.630555,25.630555)"/>
<path style="fill-rule:nonzero;fill:rgb(77.416378%,74.878893%,75.963091%);fill-opacity:1;stroke-width:0.00291319;stroke-linecap:butt;stroke-linejoin:miter;stroke:rgb(77.416378%,74.878893%,75.963091%);stroke-opacity:1;stroke-miterlimit:10;" d="M 0.0145688 -0.00000300428 C 0.0145688 0.00804101 0.00804101 0.0145688 -0.00000300428 0.0145688 C -0.00804702 0.0145688 -0.0145676 0.00804101 -0.0145676 -0.00000300428 C -0.0145676 -0.00804702 -0.00804702 -0.0145676 -0.00000300428 -0.0145676 C 0.00804101 -0.0145676 0.0145688 -0.00804702 0.0145688 -0.00000300428 Z M 0.0145688 -0.00000300428 " transform="matrix(548.73889,0,0,548.73889,25.630555,25.630555)"/>
<path style="fill-rule:nonzero;fill:rgb(83.537101%,80.307574%,83.590927%);fill-opacity:1;stroke-width:0.00291319;stroke-linecap:butt;stroke-linejoin:miter;stroke:rgb(83.537101%,80.307574%,83.590927%);stroke-opacity:1;stroke-miterlimit:10;" d="M 0.0145688 -0.00000300428 C 0.0145688 0.00804101 0.00804101 0.0145688 -0.00000300428 0.0145688 C -0.00804702 0.0145688 -0.0145676 0.00804101 -0.0145676 -0.00000300428 C -0.0145676 -0.00804702 -0.00804702 -0.0145676 -0.00000300428 -0.0145676 C 0.00804101 -0.0145676 0.0145688 -0.00804702 0.0145688 -0.00000300428 Z M 0.0145688 -0.00000300428 " transform="matrix(548.73889,0,0,548.73889,25.630555,25.630555)"/>
<path style="fill-rule:nonzero;fill:rgb(77.416378%,74.878893%,75.963091%);fill-opacity:1;stroke-width:0.00291319;stroke-linecap:butt;stroke-linejoin:miter;stroke:rgb(77.416378%,74.878893%,75.963091%);stroke-opacity:1;stroke-miterlimit:10;" d="M 0.0145688 -0.00000300428 C 0.0145688 0.00804101 0.00804101 0.0145688 -0.00000300428 0.0145688 C -0.00804702 0.0145688 -0.0145676 0.00804101 -0.0145676 -0.00000300428 C -0.0145676 -0.00804702 -0.00804702 -0.0145676 -0.00000300428 -0.0145676 C 0.00804101 -0.0145676 0.0145688 -0.00804702 0.0145688 -0.00000300428 Z M 0.0145688 -0.00000300428 " transform="matrix(548.73889,0,0,548.73889,25.630555,25.630555)"/>
<path style="fill-rule:nonzero;fill:rgb(77.416378%,74.878893%,75.963091%);fill-opacity:1;stroke-width:0.00291319;stroke-linecap:butt;stroke-linejoin:miter;stroke:rgb(77.416378%,74.878893%,75.963091%);stroke-opacity:1;stroke-miterlimit:10;" d="M 0.0145688 -0.00000300428 C 0.0145688 0.00804101 0.00804101 0.0145688 -0.00000300428 0.0145688 C -0.00804702 0.0145688 -0.0145676 0.00804101 -0.0145676 -0.00000300428 C -0.0145676 -0.00804702 -0.00804702 -0.0145676 -0.00000300428 -0.0145676 C 0.00804101 -0.0145676 0.0145688 -0.00804702 0.0145688 -0.00000300428 Z M 0.0145688 -0.00000300428 " transform="matrix(548.73889,0,0,548.73889,25.630555,25.630555)"/>
<path style="fill-rule:nonzero;fill:rgb(77.416378%,74.878893%,75.963091%);fill-opacity:1;stroke-width:0.00291319;stroke-linecap:butt;stroke-linejoin:miter;stroke:rgb(77.416378%,74.878893%,75.963091%);stroke-opacity:1;stroke-miterlimit:10;" d="M 0.0145688 -0.00000300428 C 0.0145688 0.00804101 0.00804101 0.0145688 -0.00000300428 0.0145688 C -0.00804702 0.0145688 -0.0145676 0.00804101 -0.0145676 -0.00000300428 C -0.0145676 -0.00804702 -0.00804702 -0.0145676 -0.00000300428 -0.0145676 C 0.00804101 -0.0145676 0.0145688 -0.00804702 0.0145688 -0.00000300428 Z M 0.0145688 -0.00000300428 " transform="matrix(548.73889,0,0,548.73889,25.630555,25.630555)"/>
<path style="fill-rule:nonzero;fill:rgb(56.816609%,66.774318%,77.524029%);fill-opacity:1;stroke-width:0.00291319;stroke-linecap:butt;stroke-linejoin:miter;stroke:rgb(56.816609%,66.774318%,77.524029%);stroke-opacity:1;stroke-miterlimit:10;" d="M 0.0145688 -0.00000300428 C 0.0145688 0.00804101 0.00804101 0.0145688 -0.00000300428 0.0145688 C -0.00804702 0.0145688 -0.0145676 0.00804101 -0.0145676 -0.00000300428 C -0.0145676 -0.00804702 -0.00804702 -0.0145676 -0.00000300428 -0.0145676 C 0.00804101 -0.0145676 0.0145688 -0.00804702 0.0145688 -0.00000300428 Z M 0.0145688 -0.00000300428 " transform="matrix(548.73889,0,0,548.73889,25.630555,25.630555)"/>
<path style="fill-rule:nonzero;fill:rgb(90.965013%,82.222222%,76.45521%);fill-opacity:1;stroke-width:0.00291319;stroke-linecap:butt;stroke-linejoin:miter;stroke:rgb(90.965013%,82.222222%,76.45521%);stroke-opacity:1;stroke-miterlimit:10;" d="M 0.0145688 -0.00000300428 C 0.0145688 0.00804101 0.00804101 0.0145688 -0.00000300428 0.0145688 C -0.00804702 0.0145688 -0.0145676 0.00804101 -0.0145676 -0.00000300428 C -0.0145676 -0.00804702 -0.00804702 -0.0145676 -0.00000300428 -0.0145676 C 0.00804101 -0.0145676 0.0145688 -0.00804702 0.0145688 -0.00000300428 Z M 0.0145688 -0.00000300428 " transform="matrix(548.73889,0,0,548.73889,25.630555,25.630555)"/>
<path style="fill-rule:nonzero;fill:rgb(83.537101%,80.307574%,83.590927%);fill-opacity:1;stroke-width:0.00291319;stroke-linecap:butt;stroke-linejoin:miter;stroke:rgb(83.537101%,80.307574%,83.590927%);stroke-opacity:1;stroke-miterlimit:10;" d="M 0.0145688 -0.00000300428 C 0.0145688 0.00804101 0.00804101 0.0145688 -0.00000300428 0.0145688 C -0.00804702 0.0145688 -0.0145676 0.00804101 -0.0145676 -0.00000300428 C -0.0145676 -0.00804702 -0.00804702 -0.0145676 -0.00000300428 -0.0145676 C 0.00804101 -0.0145676 0.0145688 -0.00804702 0.0145688 -0.00000300428 Z M 0.0145688 -0.00000300428 " transform="matrix(548.73889,0,0,548.73889,25.630555,25.630555)"/>
<path style="fill-rule:nonzero;fill:rgb(77.416378%,74.878893%,75.963091%);fill-opacity:1;stroke-width:0.00291319;stroke-linecap:butt;stroke-linejoin:miter;stroke:rgb(77.416378%,74.878893%,75.963091%);stroke-opacity:1;stroke-miterlimit:10;" d="M 0.0145688 -0.00000300428 C 0.0145688 0.00804101 0.00804101 0.0145688 -0.00000300428 0.0145688 C -0.00804702 0.0145688 -0.0145676 0.00804101 -0.0145676 -0.00000300428 C -0.0145676 -0.00804702 -0.00804702 -0.0145676 -0.00000300428 -0.0145676 C 0.00804101 -0.0145676 0.0145688 -0.00804702 0.0145688 -0.00000300428 Z M 0.0145688 -0.00000300428 " transform="matrix(548.73889,0,0,548.73889,25.630555,25.630555)"/>
<path style="fill-rule:nonzero;fill:rgb(56.816609%,66.774318%,77.524029%);fill-opacity:1;stroke-width:0.00291319;stroke-linecap:butt;stroke-linejoin:miter;stroke:rgb(56.816609%,66.774318%,77.524029%);stroke-opacity:1;stroke-miterlimit:10;" d="M 0.0145688 -0.00000300428 C 0.0145688 0.00804101 0.00804101 0.0145688 -0.00000300428 0.0145688 C -0.00804702 0.0145688 -0.0145676 0.00804101 -0.0145676 -0.00000300428 C -0.0145676 -0.00804702 -0.00804702 -0.0145676 -0.00000300428 -0.0145676 C 0.00804101 -0.0145676 0.0145688 -0.00804702 0.0145688 -0.00000300428 Z M 0.0145688 -0.00000300428 " transform="matrix(548.73889,0,0,548.73889,25.630555,25.630555)"/>
<path style="fill-rule:nonzero;fill:rgb(83.537101%,80.307574%,83.590927%);fill-opacity:1;stroke-width:0.00291319;stroke-linecap:butt;stroke-linejoin:miter;stroke:rgb(83.537101%,80.307574%,83.590927%);stroke-opacity:1;stroke-miterlimit:10;" d="M 0.0145688 -0.00000300428 C 0.0145688 0.00804101 0.00804101 0.0145688 -0.00000300428 0.0145688 C -0.00804702 0.0145688 -0.0145676 0.00804101 -0.0145676 -0.00000300428 C -0.0145676 -0.00804702 -0.00804702 -0.0145676 -0.00000300428 -0.0145676 C 0.00804101 -0.0145676 0.0145688 -0.00804702 0.0145688 -0.00000300428 Z M 0.0145688 -0.00000300428 " transform="matrix(548.73889,0,0,548.73889,25.630555,25.630555)"/>
<path style="fill-rule:nonzero;fill:rgb(77.416378%,74.878893%,75.963091%);fill-opacity:1;stroke-width:0.00291319;stroke-linecap:butt;stroke-linejoin:miter;stroke:rgb(77.416378%,74.878893%,75.963091%);stroke-opacity:1;stroke-miterlimit:10;" d="M 0.0145688 -0.00000300428 C 0.0145688 0.00804101 0.00804101 0.0145688 -0.00000300428 0.0145688 C -0.00804702 0.0145688 -0.0145676 0.00804101 -0.0145676 -0.00000300428 C -0.0145676 -0.00804702 -0.00804702 -0.0145676 -0.00000300428 -0.0145676 C 0.00804101 -0.0145676 0.0145688 -0.00804702 0.0145688 -0.00000300428 Z M 0.0145688 -0.00000300428 " transform="matrix(548.73889,0,0,548.73889,25.630555,25.630555)"/>
<path style="fill-rule:nonzero;fill:rgb(100%,92.941176%,43.529412%);fill-opacity:1;stroke-width:0.00291319;stroke-linecap:butt;stroke-linejoin:miter;stroke:rgb(100%,92.941176%,43.529412%);stroke-opacity:1;stroke-miterlimit:10;" d="M 0.0145688 -0.00000300428 C 0.0145688 0.00804101 0.00804101 0.0145688 -0.00000300428 0.0145688 C -0.00804702 0.0145688 -0.0145676 0.00804101 -0.0145676 -0.00000300428 C -0.0145676 -0.00804702 -0.00804702 -0.0145676 -0.00000300428 -0.0145676 C 0.00804101 -0.0145676 0.0145688 -0.00804702 0.0145688 -0.00000300428 Z M 0.0145688 -0.00000300428 " transform="matrix(548.73889,0,0,548.73889,25.630555,25.630555)"/>
<path style="fill-rule:nonzero;fill:rgb(55.294118%,82.745098%,78.039216%);fill-opacity:1;stroke-width:0.00291319;stroke-linecap:butt;stroke-linejoin:miter;stroke:rgb(55.294118%,82.745098%,78.039216%);stroke-opacity:1;stroke-miterlimit:10;" d="M 0.0145688 -0.00000300428 C 0.0145688 0.00804101 0.00804101 0.0145688 -0.00000300428 0.0145688 C -0.00804702 0.0145688 -0.0145676 0.00804101 -0.0145676 -0.00000300428 C -0.0145676 -0.00804702 -0.00804702 -0.0145676 -0.00000300428 -0.0145676 C 0.00804101 -0.0145676 0.0145688 -0.00804702 0.0145688 -0.00000300428 Z M 0.0145688 -0.00000300428 " transform="matrix(548.73889,0,0,548.73889,25.630555,25.630555)"/>
<path style="fill-rule:nonzero;fill:rgb(55.294118%,82.745098%,78.039216%);fill-opacity:1;stroke-width:0.00291319;stroke-linecap:butt;stroke-linejoin:miter;stroke:rgb(55.294118%,82.745098%,78.039216%);stroke-opacity:1;stroke-miterlimit:10;" d="M 0.0145688 -0.00000300428 C 0.0145688 0.00804101 0.00804101 0.0145688 -0.00000300428 0.0145688 C -0.00804702 0.0145688 -0.0145676 0.00804101 -0.0145676 -0.00000300428 C -0.0145676 -0.00804702 -0.00804702 -0.0145676 -0.00000300428 -0.0145676 C 0.00804101 -0.0145676 0.0145688 -0.00804702 0.0145688 -0.00000300428 Z M 0.0145688 -0.00000300428 " transform="matrix(548.73889,0,0,548.73889,25.630555,25.630555)"/>
<path style="fill-rule:nonzero;fill:rgb(83.537101%,80.307574%,83.590927%);fill-opacity:1;stroke-width:0.00291319;stroke-linecap:butt;stroke-linejoin:miter;stroke:rgb(83.537101%,80.307574%,83.590927%);stroke-opacity:1;stroke-miterlimit:10;" d="M 0.0145688 -0.00000300428 C 0.0145688 0.00804101 0.00804101 0.0145688 -0.00000300428 0.0145688 C -0.00804702 0.0145688 -0.0145676 0.00804101 -0.0145676 -0.00000300428 C -0.0145676 -0.00804702 -0.00804702 -0.0145676 -0.00000300428 -0.0145676 C 0.00804101 -0.0145676 0.0145688 -0.00804702 0.0145688 -0.00000300428 Z M 0.0145688 -0.00000300428 " transform="matrix(548.73889,0,0,548.73889,25.630555,25.630555)"/>
<path style="fill-rule:nonzero;fill:rgb(90.965013%,82.222222%,76.45521%);fill-opacity:1;stroke-width:0.00291319;stroke-linecap:butt;stroke-linejoin:miter;stroke:rgb(90.965013%,82.222222%,76.45521%);stroke-opacity:1;stroke-miterlimit:10;" d="M 0.0145688 -0.00000300428 C 0.0145688 0.00804101 0.00804101 0.0145688 -0.00000300428 0.0145688 C -0.00804702 0.0145688 -0.0145676 0.00804101 -0.0145676 -0.00000300428 C -0.0145676 -0.00804702 -0.00804702 -0.0145676 -0.00000300428 -0.0145676 C 0.00804101 -0.0145676 0.0145688 -0.00804702 0.0145688 -0.00000300428 Z M 0.0145688 -0.00000300428 " transform="matrix(548.73889,0,0,548.73889,25.630555,25.630555)"/>
<path style="fill-rule:nonzero;fill:rgb(91.249519%,75.109573%,39.184929%);fill-opacity:1;stroke-width:0.00291319;stroke-linecap:butt;stroke-linejoin:miter;stroke:rgb(91.249519%,75.109573%,39.184929%);stroke-opacity:1;stroke-miterlimit:10;" d="M 0.0145688 -0.00000300428 C 0.0145688 0.00804101 0.00804101 0.0145688 -0.00000300428 0.0145688 C -0.00804702 0.0145688 -0.0145676 0.00804101 -0.0145676 -0.00000300428 C -0.0145676 -0.00804702 -0.00804702 -0.0145676 -0.00000300428 -0.0145676 C 0.00804101 -0.0145676 0.0145688 -0.00804702 0.0145688 -0.00000300428 Z M 0.0145688 -0.00000300428 " transform="matrix(548.73889,0,0,548.73889,25.630555,25.630555)"/>
<path style="fill-rule:nonzero;fill:rgb(100%,92.941176%,43.529412%);fill-opacity:1;stroke-width:0.00291319;stroke-linecap:butt;stroke-linejoin:miter;stroke:rgb(100%,92.941176%,43.529412%);stroke-opacity:1;stroke-miterlimit:10;" d="M 0.0145688 -0.00000300428 C 0.0145688 0.00804101 0.00804101 0.0145688 -0.00000300428 0.0145688 C -0.00804702 0.0145688 -0.0145676 0.00804101 -0.0145676 -0.00000300428 C -0.0145676 -0.00804702 -0.00804702 -0.0145676 -0.00000300428 -0.0145676 C 0.00804101 -0.0145676 0.0145688 -0.00804702 0.0145688 -0.00000300428 Z M 0.0145688 -0.00000300428 " transform="matrix(548.73889,0,0,548.73889,25.630555,25.630555)"/>
<path style="fill-rule:nonzero;fill:rgb(91.249519%,75.109573%,39.184929%);fill-opacity:1;stroke-width:0.00291319;stroke-linecap:butt;stroke-linejoin:miter;stroke:rgb(91.249519%,75.109573%,39.184929%);stroke-opacity:1;stroke-miterlimit:10;" d="M 0.0145688 -0.00000300428 C 0.0145688 0.00804101 0.00804101 0.0145688 -0.00000300428 0.0145688 C -0.00804702 0.0145688 -0.0145676 0.00804101 -0.0145676 -0.00000300428 C -0.0145676 -0.00804702 -0.00804702 -0.0145676 -0.00000300428 -0.0145676 C 0.00804101 -0.0145676 0.0145688 -0.00804702 0.0145688 -0.00000300428 Z M 0.0145688 -0.00000300428 " transform="matrix(548.73889,0,0,548.73889,25.630555,25.630555)"/>
<path style="fill-rule:nonzero;fill:rgb(77.416378%,74.878893%,75.963091%);fill-opacity:1;stroke-width:0.00291319;stroke-linecap:butt;stroke-linejoin:miter;stroke:rgb(77.416378%,74.878893%,75.963091%);stroke-opacity:1;stroke-miterlimit:10;" d="M 0.0145688 -0.00000300428 C 0.0145688 0.00804101 0.00804101 0.0145688 -0.00000300428 0.0145688 C -0.00804702 0.0145688 -0.0145676 0.00804101 -0.0145676 -0.00000300428 C -0.0145676 -0.00804702 -0.00804702 -0.0145676 -0.00000300428 -0.0145676 C 0.00804101 -0.0145676 0.0145688 -0.00804702 0.0145688 -0.00000300428 Z M 0.0145688 -0.00000300428 " transform="matrix(548.73889,0,0,548.73889,25.630555,25.630555)"/>
<path style="fill-rule:nonzero;fill:rgb(83.537101%,80.307574%,83.590927%);fill-opacity:1;stroke-width:0.00291319;stroke-linecap:butt;stroke-linejoin:miter;stroke:rgb(83.537101%,80.307574%,83.590927%);stroke-opacity:1;stroke-miterlimit:10;" d="M 0.0145688 -0.00000300428 C 0.0145688 0.00804101 0.00804101 0.0145688 -0.00000300428 0.0145688 C -0.00804702 0.0145688 -0.0145676 0.00804101 -0.0145676 -0.00000300428 C -0.0145676 -0.00804702 -0.00804702 -0.0145676 -0.00000300428 -0.0145676 C 0.00804101 -0.0145676 0.0145688 -0.00804702 0.0145688 -0.00000300428 Z M 0.0145688 -0.00000300428 " transform="matrix(548.73889,0,0,548.73889,25.630555,25.630555)"/>
<path style="fill-rule:nonzero;fill:rgb(55.294118%,82.745098%,78.039216%);fill-opacity:1;stroke-width:0.00291319;stroke-linecap:butt;stroke-linejoin:miter;stroke:rgb(55.294118%,82.745098%,78.039216%);stroke-opacity:1;stroke-miterlimit:10;" d="M 0.0145688 -0.00000300428 C 0.0145688 0.00804101 0.00804101 0.0145688 -0.00000300428 0.0145688 C -0.00804702 0.0145688 -0.0145676 0.00804101 -0.0145676 -0.00000300428 C -0.0145676 -0.00804702 -0.00804702 -0.0145676 -0.00000300428 -0.0145676 C 0.00804101 -0.0145676 0.0145688 -0.00804702 0.0145688 -0.00000300428 Z M 0.0145688 -0.00000300428 " transform="matrix(548.73889,0,0,548.73889,25.630555,25.630555)"/>
<path style="fill-rule:nonzero;fill:rgb(55.294118%,82.745098%,78.039216%);fill-opacity:1;stroke-width:0.00291319;stroke-linecap:butt;stroke-linejoin:miter;stroke:rgb(55.294118%,82.745098%,78.039216%);stroke-opacity:1;stroke-miterlimit:10;" d="M 0.0145688 -0.00000300428 C 0.0145688 0.00804101 0.00804101 0.0145688 -0.00000300428 0.0145688 C -0.00804702 0.0145688 -0.0145676 0.00804101 -0.0145676 -0.00000300428 C -0.0145676 -0.00804702 -0.00804702 -0.0145676 -0.00000300428 -0.0145676 C 0.00804101 -0.0145676 0.0145688 -0.00804702 0.0145688 -0.00000300428 Z M 0.0145688 -0.00000300428 " transform="matrix(548.73889,0,0,548.73889,25.630555,25.630555)"/>
<path style="fill-rule:nonzero;fill:rgb(77.416378%,74.878893%,75.963091%);fill-opacity:1;stroke-width:0.00291319;stroke-linecap:butt;stroke-linejoin:miter;stroke:rgb(77.416378%,74.878893%,75.963091%);stroke-opacity:1;stroke-miterlimit:10;" d="M 0.0145688 -0.00000300428 C 0.0145688 0.00804101 0.00804101 0.0145688 -0.00000300428 0.0145688 C -0.00804702 0.0145688 -0.0145676 0.00804101 -0.0145676 -0.00000300428 C -0.0145676 -0.00804702 -0.00804702 -0.0145676 -0.00000300428 -0.0145676 C 0.00804101 -0.0145676 0.0145688 -0.00804702 0.0145688 -0.00000300428 Z M 0.0145688 -0.00000300428 " transform="matrix(548.73889,0,0,548.73889,25.630555,25.630555)"/>
<path style="fill-rule:nonzero;fill:rgb(77.416378%,74.878893%,75.963091%);fill-opacity:1;stroke-width:0.00291319;stroke-linecap:butt;stroke-linejoin:miter;stroke:rgb(77.416378%,74.878893%,75.963091%);stroke-opacity:1;stroke-miterlimit:10;" d="M 0.0145688 -0.00000300428 C 0.0145688 0.00804101 0.00804101 0.0145688 -0.00000300428 0.0145688 C -0.00804702 0.0145688 -0.0145676 0.00804101 -0.0145676 -0.00000300428 C -0.0145676 -0.00804702 -0.00804702 -0.0145676 -0.00000300428 -0.0145676 C 0.00804101 -0.0145676 0.0145688 -0.00804702 0.0145688 -0.00000300428 Z M 0.0145688 -0.00000300428 " transform="matrix(548.73889,0,0,548.73889,25.630555,25.630555)"/>
<path style="fill-rule:nonzero;fill:rgb(91.249519%,75.109573%,39.184929%);fill-opacity:1;stroke-width:0.00291319;stroke-linecap:butt;stroke-linejoin:miter;stroke:rgb(91.249519%,75.109573%,39.184929%);stroke-opacity:1;stroke-miterlimit:10;" d="M 0.0145688 -0.00000300428 C 0.0145688 0.00804101 0.00804101 0.0145688 -0.00000300428 0.0145688 C -0.00804702 0.0145688 -0.0145676 0.00804101 -0.0145676 -0.00000300428 C -0.0145676 -0.00804702 -0.00804702 -0.0145676 -0.00000300428 -0.0145676 C 0.00804101 -0.0145676 0.0145688 -0.00804702 0.0145688 -0.00000300428 Z M 0.0145688 -0.00000300428 " transform="matrix(548.73889,0,0,548.73889,25.630555,25.630555)"/>
<path style="fill-rule:nonzero;fill:rgb(77.416378%,74.878893%,75.963091%);fill-opacity:1;stroke-width:0.00291319;stroke-linecap:butt;stroke-linejoin:miter;stroke:rgb(77.416378%,74.878893%,75.963091%);stroke-opacity:1;stroke-miterlimit:10;" d="M 0.0145688 -0.00000300428 C 0.0145688 0.00804101 0.00804101 0.0145688 -0.00000300428 0.0145688 C -0.00804702 0.0145688 -0.0145676 0.00804101 -0.0145676 -0.00000300428 C -0.0145676 -0.00804702 -0.00804702 -0.0145676 -0.00000300428 -0.0145676 C 0.00804101 -0.0145676 0.0145688 -0.00804702 0.0145688 -0.00000300428 Z M 0.0145688 -0.00000300428 " transform="matrix(548.73889,0,0,548.73889,25.630555,25.630555)"/>
<path style="fill-rule:nonzero;fill:rgb(100%,92.941176%,43.529412%);fill-opacity:1;stroke-width:0.00291319;stroke-linecap:butt;stroke-linejoin:miter;stroke:rgb(100%,92.941176%,43.529412%);stroke-opacity:1;stroke-miterlimit:10;" d="M 0.0145688 -0.00000300428 C 0.0145688 0.00804101 0.00804101 0.0145688 -0.00000300428 0.0145688 C -0.00804702 0.0145688 -0.0145676 0.00804101 -0.0145676 -0.00000300428 C -0.0145676 -0.00804702 -0.00804702 -0.0145676 -0.00000300428 -0.0145676 C 0.00804101 -0.0145676 0.0145688 -0.00804702 0.0145688 -0.00000300428 Z M 0.0145688 -0.00000300428 " transform="matrix(548.73889,0,0,548.73889,25.630555,25.630555)"/>
<path style="fill-rule:nonzero;fill:rgb(91.249519%,75.109573%,39.184929%);fill-opacity:1;stroke-width:0.00291319;stroke-linecap:butt;stroke-linejoin:miter;stroke:rgb(91.249519%,75.109573%,39.184929%);stroke-opacity:1;stroke-miterlimit:10;" d="M 0.0145688 -0.00000300428 C 0.0145688 0.00804101 0.00804101 0.0145688 -0.00000300428 0.0145688 C -0.00804702 0.0145688 -0.0145676 0.00804101 -0.0145676 -0.00000300428 C -0.0145676 -0.00804702 -0.00804702 -0.0145676 -0.00000300428 -0.0145676 C 0.00804101 -0.0145676 0.0145688 -0.00804702 0.0145688 -0.00000300428 Z M 0.0145688 -0.00000300428 " transform="matrix(548.73889,0,0,548.73889,25.630555,25.630555)"/>
<path style="fill-rule:nonzero;fill:rgb(90.965013%,82.222222%,76.45521%);fill-opacity:1;stroke-width:0.00291319;stroke-linecap:butt;stroke-linejoin:miter;stroke:rgb(90.965013%,82.222222%,76.45521%);stroke-opacity:1;stroke-miterlimit:10;" d="M 0.0145688 -0.00000300428 C 0.0145688 0.00804101 0.00804101 0.0145688 -0.00000300428 0.0145688 C -0.00804702 0.0145688 -0.0145676 0.00804101 -0.0145676 -0.00000300428 C -0.0145676 -0.00804702 -0.00804702 -0.0145676 -0.00000300428 -0.0145676 C 0.00804101 -0.0145676 0.0145688 -0.00804702 0.0145688 -0.00000300428 Z M 0.0145688 -0.00000300428 " transform="matrix(548.73889,0,0,548.73889,25.630555,25.630555)"/>
<path style="fill-rule:nonzero;fill:rgb(77.416378%,74.878893%,75.963091%);fill-opacity:1;stroke-width:0.00291319;stroke-linecap:butt;stroke-linejoin:miter;stroke:rgb(77.416378%,74.878893%,75.963091%);stroke-opacity:1;stroke-miterlimit:10;" d="M 0.0145688 -0.00000300428 C 0.0145688 0.00804101 0.00804101 0.0145688 -0.00000300428 0.0145688 C -0.00804702 0.0145688 -0.0145676 0.00804101 -0.0145676 -0.00000300428 C -0.0145676 -0.00804702 -0.00804702 -0.0145676 -0.00000300428 -0.0145676 C 0.00804101 -0.0145676 0.0145688 -0.00804702 0.0145688 -0.00000300428 Z M 0.0145688 -0.00000300428 " transform="matrix(548.73889,0,0,548.73889,25.630555,25.630555)"/>
<path style="fill-rule:nonzero;fill:rgb(83.537101%,80.307574%,83.590927%);fill-opacity:1;stroke-width:0.00291319;stroke-linecap:butt;stroke-linejoin:miter;stroke:rgb(83.537101%,80.307574%,83.590927%);stroke-opacity:1;stroke-miterlimit:10;" d="M 0.0145688 -0.00000300428 C 0.0145688 0.00804101 0.00804101 0.0145688 -0.00000300428 0.0145688 C -0.00804702 0.0145688 -0.0145676 0.00804101 -0.0145676 -0.00000300428 C -0.0145676 -0.00804702 -0.00804702 -0.0145676 -0.00000300428 -0.0145676 C 0.00804101 -0.0145676 0.0145688 -0.00804702 0.0145688 -0.00000300428 Z M 0.0145688 -0.00000300428 " transform="matrix(548.73889,0,0,548.73889,25.630555,25.630555)"/>
<path style="fill-rule:nonzero;fill:rgb(100%,92.941176%,43.529412%);fill-opacity:1;stroke-width:0.00291319;stroke-linecap:butt;stroke-linejoin:miter;stroke:rgb(100%,92.941176%,43.529412%);stroke-opacity:1;stroke-miterlimit:10;" d="M 0.0145688 -0.00000300428 C 0.0145688 0.00804101 0.00804101 0.0145688 -0.00000300428 0.0145688 C -0.00804702 0.0145688 -0.0145676 0.00804101 -0.0145676 -0.00000300428 C -0.0145676 -0.00804702 -0.00804702 -0.0145676 -0.00000300428 -0.0145676 C 0.00804101 -0.0145676 0.0145688 -0.00804702 0.0145688 -0.00000300428 Z M 0.0145688 -0.00000300428 " transform="matrix(548.73889,0,0,548.73889,25.630555,25.630555)"/>
<path style="fill-rule:nonzero;fill:rgb(84.359862%,63.575548%,68.696655%);fill-opacity:1;stroke-width:0.00291319;stroke-linecap:butt;stroke-linejoin:miter;stroke:rgb(84.359862%,63.575548%,68.696655%);stroke-opacity:1;stroke-miterlimit:10;" d="M 0.0145688 -0.00000300428 C 0.0145688 0.00804101 0.00804101 0.0145688 -0.00000300428 0.0145688 C -0.00804702 0.0145688 -0.0145676 0.00804101 -0.0145676 -0.00000300428 C -0.0145676 -0.00804702 -0.00804702 -0.0145676 -0.00000300428 -0.0145676 C 0.00804101 -0.0145676 0.0145688 -0.00804702 0.0145688 -0.00000300428 Z M 0.0145688 -0.00000300428 " transform="matrix(548.73889,0,0,548.73889,25.630555,25.630555)"/>
<path style="fill-rule:nonzero;fill:rgb(55.294118%,82.745098%,78.039216%);fill-opacity:1;stroke-width:0.00291319;stroke-linecap:butt;stroke-linejoin:miter;stroke:rgb(55.294118%,82.745098%,78.039216%);stroke-opacity:1;stroke-miterlimit:10;" d="M 0.0145688 -0.00000300428 C 0.0145688 0.00804101 0.00804101 0.0145688 -0.00000300428 0.0145688 C -0.00804702 0.0145688 -0.0145676 0.00804101 -0.0145676 -0.00000300428 C -0.0145676 -0.00804702 -0.00804702 -0.0145676 -0.00000300428 -0.0145676 C 0.00804101 -0.0145676 0.0145688 -0.00804702 0.0145688 -0.00000300428 Z M 0.0145688 -0.00000300428 " transform="matrix(548.73889,0,0,548.73889,25.630555,25.630555)"/>
<path style="fill-rule:nonzero;fill:rgb(77.416378%,74.878893%,75.963091%);fill-opacity:1;stroke-width:0.00291319;stroke-linecap:butt;stroke-linejoin:miter;stroke:rgb(77.416378%,74.878893%,75.963091%);stroke-opacity:1;stroke-miterlimit:10;" d="M 0.0145688 -0.00000300428 C 0.0145688 0.00804101 0.00804101 0.0145688 -0.00000300428 0.0145688 C -0.00804702 0.0145688 -0.0145676 0.00804101 -0.0145676 -0.00000300428 C -0.0145676 -0.00804702 -0.00804702 -0.0145676 -0.00000300428 -0.0145676 C 0.00804101 -0.0145676 0.0145688 -0.00804702 0.0145688 -0.00000300428 Z M 0.0145688 -0.00000300428 " transform="matrix(548.73889,0,0,548.73889,25.630555,25.630555)"/>
<path style="fill-rule:nonzero;fill:rgb(77.416378%,74.878893%,75.963091%);fill-opacity:1;stroke-width:0.00291319;stroke-linecap:butt;stroke-linejoin:miter;stroke:rgb(77.416378%,74.878893%,75.963091%);stroke-opacity:1;stroke-miterlimit:10;" d="M 0.0145688 -0.00000300428 C 0.0145688 0.00804101 0.00804101 0.0145688 -0.00000300428 0.0145688 C -0.00804702 0.0145688 -0.0145676 0.00804101 -0.0145676 -0.00000300428 C -0.0145676 -0.00804702 -0.00804702 -0.0145676 -0.00000300428 -0.0145676 C 0.00804101 -0.0145676 0.0145688 -0.00804702 0.0145688 -0.00000300428 Z M 0.0145688 -0.00000300428 " transform="matrix(548.73889,0,0,548.73889,25.630555,25.630555)"/>
<path style="fill-rule:nonzero;fill:rgb(55.294118%,82.745098%,78.039216%);fill-opacity:1;stroke-width:0.00291319;stroke-linecap:butt;stroke-linejoin:miter;stroke:rgb(55.294118%,82.745098%,78.039216%);stroke-opacity:1;stroke-miterlimit:10;" d="M 0.0145688 -0.00000300428 C 0.0145688 0.00804101 0.00804101 0.0145688 -0.00000300428 0.0145688 C -0.00804702 0.0145688 -0.0145676 0.00804101 -0.0145676 -0.00000300428 C -0.0145676 -0.00804702 -0.00804702 -0.0145676 -0.00000300428 -0.0145676 C 0.00804101 -0.0145676 0.0145688 -0.00804702 0.0145688 -0.00000300428 Z M 0.0145688 -0.00000300428 " transform="matrix(548.73889,0,0,548.73889,25.630555,25.630555)"/>
<path style="fill-rule:nonzero;fill:rgb(77.416378%,74.878893%,75.963091%);fill-opacity:1;stroke-width:0.00291319;stroke-linecap:butt;stroke-linejoin:miter;stroke:rgb(77.416378%,74.878893%,75.963091%);stroke-opacity:1;stroke-miterlimit:10;" d="M 0.0145688 -0.00000300428 C 0.0145688 0.00804101 0.00804101 0.0145688 -0.00000300428 0.0145688 C -0.00804702 0.0145688 -0.0145676 0.00804101 -0.0145676 -0.00000300428 C -0.0145676 -0.00804702 -0.00804702 -0.0145676 -0.00000300428 -0.0145676 C 0.00804101 -0.0145676 0.0145688 -0.00804702 0.0145688 -0.00000300428 Z M 0.0145688 -0.00000300428 " transform="matrix(548.73889,0,0,548.73889,25.630555,25.630555)"/>
<path style="fill-rule:nonzero;fill:rgb(83.537101%,80.307574%,83.590927%);fill-opacity:1;stroke-width:0.00291319;stroke-linecap:butt;stroke-linejoin:miter;stroke:rgb(83.537101%,80.307574%,83.590927%);stroke-opacity:1;stroke-miterlimit:10;" d="M 0.0145688 -0.00000300428 C 0.0145688 0.00804101 0.00804101 0.0145688 -0.00000300428 0.0145688 C -0.00804702 0.0145688 -0.0145676 0.00804101 -0.0145676 -0.00000300428 C -0.0145676 -0.00804702 -0.00804702 -0.0145676 -0.00000300428 -0.0145676 C 0.00804101 -0.0145676 0.0145688 -0.00804702 0.0145688 -0.00000300428 Z M 0.0145688 -0.00000300428 " transform="matrix(548.73889,0,0,548.73889,25.630555,25.630555)"/>
<path style="fill-rule:nonzero;fill:rgb(83.537101%,80.307574%,83.590927%);fill-opacity:1;stroke-width:0.00291319;stroke-linecap:butt;stroke-linejoin:miter;stroke:rgb(83.537101%,80.307574%,83.590927%);stroke-opacity:1;stroke-miterlimit:10;" d="M 0.0145688 -0.00000300428 C 0.0145688 0.00804101 0.00804101 0.0145688 -0.00000300428 0.0145688 C -0.00804702 0.0145688 -0.0145676 0.00804101 -0.0145676 -0.00000300428 C -0.0145676 -0.00804702 -0.00804702 -0.0145676 -0.00000300428 -0.0145676 C 0.00804101 -0.0145676 0.0145688 -0.00804702 0.0145688 -0.00000300428 Z M 0.0145688 -0.00000300428 " transform="matrix(548.73889,0,0,548.73889,25.630555,25.630555)"/>
<path style="fill-rule:nonzero;fill:rgb(77.416378%,74.878893%,75.963091%);fill-opacity:1;stroke-width:0.00291319;stroke-linecap:butt;stroke-linejoin:miter;stroke:rgb(77.416378%,74.878893%,75.963091%);stroke-opacity:1;stroke-miterlimit:10;" d="M 0.0145688 -0.00000300428 C 0.0145688 0.00804101 0.00804101 0.0145688 -0.00000300428 0.0145688 C -0.00804702 0.0145688 -0.0145676 0.00804101 -0.0145676 -0.00000300428 C -0.0145676 -0.00804702 -0.00804702 -0.0145676 -0.00000300428 -0.0145676 C 0.00804101 -0.0145676 0.0145688 -0.00804702 0.0145688 -0.00000300428 Z M 0.0145688 -0.00000300428 " transform="matrix(548.73889,0,0,548.73889,25.630555,25.630555)"/>
<path style="fill-rule:nonzero;fill:rgb(91.249519%,75.109573%,39.184929%);fill-opacity:1;stroke-width:0.00291319;stroke-linecap:butt;stroke-linejoin:miter;stroke:rgb(91.249519%,75.109573%,39.184929%);stroke-opacity:1;stroke-miterlimit:10;" d="M 0.0145688 -0.00000300428 C 0.0145688 0.00804101 0.00804101 0.0145688 -0.00000300428 0.0145688 C -0.00804702 0.0145688 -0.0145676 0.00804101 -0.0145676 -0.00000300428 C -0.0145676 -0.00804702 -0.00804702 -0.0145676 -0.00000300428 -0.0145676 C 0.00804101 -0.0145676 0.0145688 -0.00804702 0.0145688 -0.00000300428 Z M 0.0145688 -0.00000300428 " transform="matrix(548.73889,0,0,548.73889,25.630555,25.630555)"/>
<path style="fill-rule:nonzero;fill:rgb(90.965013%,82.222222%,76.45521%);fill-opacity:1;stroke-width:0.00291319;stroke-linecap:butt;stroke-linejoin:miter;stroke:rgb(90.965013%,82.222222%,76.45521%);stroke-opacity:1;stroke-miterlimit:10;" d="M 0.0145688 -0.00000300428 C 0.0145688 0.00804101 0.00804101 0.0145688 -0.00000300428 0.0145688 C -0.00804702 0.0145688 -0.0145676 0.00804101 -0.0145676 -0.00000300428 C -0.0145676 -0.00804702 -0.00804702 -0.0145676 -0.00000300428 -0.0145676 C 0.00804101 -0.0145676 0.0145688 -0.00804702 0.0145688 -0.00000300428 Z M 0.0145688 -0.00000300428 " transform="matrix(548.73889,0,0,548.73889,25.630555,25.630555)"/>
<path style="fill-rule:nonzero;fill:rgb(56.816609%,66.774318%,77.524029%);fill-opacity:1;stroke-width:0.00291319;stroke-linecap:butt;stroke-linejoin:miter;stroke:rgb(56.816609%,66.774318%,77.524029%);stroke-opacity:1;stroke-miterlimit:10;" d="M 0.0145688 -0.00000300428 C 0.0145688 0.00804101 0.00804101 0.0145688 -0.00000300428 0.0145688 C -0.00804702 0.0145688 -0.0145676 0.00804101 -0.0145676 -0.00000300428 C -0.0145676 -0.00804702 -0.00804702 -0.0145676 -0.00000300428 -0.0145676 C 0.00804101 -0.0145676 0.0145688 -0.00804702 0.0145688 -0.00000300428 Z M 0.0145688 -0.00000300428 " transform="matrix(548.73889,0,0,548.73889,25.630555,25.630555)"/>
<path style="fill-rule:nonzero;fill:rgb(77.416378%,74.878893%,75.963091%);fill-opacity:1;stroke-width:0.00291319;stroke-linecap:butt;stroke-linejoin:miter;stroke:rgb(77.416378%,74.878893%,75.963091%);stroke-opacity:1;stroke-miterlimit:10;" d="M 0.0145688 -0.00000300428 C 0.0145688 0.00804101 0.00804101 0.0145688 -0.00000300428 0.0145688 C -0.00804702 0.0145688 -0.0145676 0.00804101 -0.0145676 -0.00000300428 C -0.0145676 -0.00804702 -0.00804702 -0.0145676 -0.00000300428 -0.0145676 C 0.00804101 -0.0145676 0.0145688 -0.00804702 0.0145688 -0.00000300428 Z M 0.0145688 -0.00000300428 " transform="matrix(548.73889,0,0,548.73889,25.630555,25.630555)"/>
<path style="fill-rule:nonzero;fill:rgb(91.249519%,75.109573%,39.184929%);fill-opacity:1;stroke-width:0.00291319;stroke-linecap:butt;stroke-linejoin:miter;stroke:rgb(91.249519%,75.109573%,39.184929%);stroke-opacity:1;stroke-miterlimit:10;" d="M 0.0145688 -0.00000300428 C 0.0145688 0.00804101 0.00804101 0.0145688 -0.00000300428 0.0145688 C -0.00804702 0.0145688 -0.0145676 0.00804101 -0.0145676 -0.00000300428 C -0.0145676 -0.00804702 -0.00804702 -0.0145676 -0.00000300428 -0.0145676 C 0.00804101 -0.0145676 0.0145688 -0.00804702 0.0145688 -0.00000300428 Z M 0.0145688 -0.00000300428 " transform="matrix(548.73889,0,0,548.73889,25.630555,25.630555)"/>
<path style="fill-rule:nonzero;fill:rgb(84.359862%,63.575548%,68.696655%);fill-opacity:1;stroke-width:0.00291319;stroke-linecap:butt;stroke-linejoin:miter;stroke:rgb(84.359862%,63.575548%,68.696655%);stroke-opacity:1;stroke-miterlimit:10;" d="M 0.0145688 -0.00000300428 C 0.0145688 0.00804101 0.00804101 0.0145688 -0.00000300428 0.0145688 C -0.00804702 0.0145688 -0.0145676 0.00804101 -0.0145676 -0.00000300428 C -0.0145676 -0.00804702 -0.00804702 -0.0145676 -0.00000300428 -0.0145676 C 0.00804101 -0.0145676 0.0145688 -0.00804702 0.0145688 -0.00000300428 Z M 0.0145688 -0.00000300428 " transform="matrix(548.73889,0,0,548.73889,25.630555,25.630555)"/>
<path style="fill-rule:nonzero;fill:rgb(55.294118%,82.745098%,78.039216%);fill-opacity:1;stroke-width:0.00291319;stroke-linecap:butt;stroke-linejoin:miter;stroke:rgb(55.294118%,82.745098%,78.039216%);stroke-opacity:1;stroke-miterlimit:10;" d="M 0.0145688 -0.00000300428 C 0.0145688 0.00804101 0.00804101 0.0145688 -0.00000300428 0.0145688 C -0.00804702 0.0145688 -0.0145676 0.00804101 -0.0145676 -0.00000300428 C -0.0145676 -0.00804702 -0.00804702 -0.0145676 -0.00000300428 -0.0145676 C 0.00804101 -0.0145676 0.0145688 -0.00804702 0.0145688 -0.00000300428 Z M 0.0145688 -0.00000300428 " transform="matrix(548.73889,0,0,548.73889,25.630555,25.630555)"/>
<path style="fill-rule:nonzero;fill:rgb(84.359862%,63.575548%,68.696655%);fill-opacity:1;stroke-width:0.00291319;stroke-linecap:butt;stroke-linejoin:miter;stroke:rgb(84.359862%,63.575548%,68.696655%);stroke-opacity:1;stroke-miterlimit:10;" d="M 0.0145688 -0.00000300428 C 0.0145688 0.00804101 0.00804101 0.0145688 -0.00000300428 0.0145688 C -0.00804702 0.0145688 -0.0145676 0.00804101 -0.0145676 -0.00000300428 C -0.0145676 -0.00804702 -0.00804702 -0.0145676 -0.00000300428 -0.0145676 C 0.00804101 -0.0145676 0.0145688 -0.00804702 0.0145688 -0.00000300428 Z M 0.0145688 -0.00000300428 " transform="matrix(548.73889,0,0,548.73889,25.630555,25.630555)"/>
<path style="fill-rule:nonzero;fill:rgb(56.816609%,66.774318%,77.524029%);fill-opacity:1;stroke-width:0.00291319;stroke-linecap:butt;stroke-linejoin:miter;stroke:rgb(56.816609%,66.774318%,77.524029%);stroke-opacity:1;stroke-miterlimit:10;" d="M 0.0145688 -0.00000300428 C 0.0145688 0.00804101 0.00804101 0.0145688 -0.00000300428 0.0145688 C -0.00804702 0.0145688 -0.0145676 0.00804101 -0.0145676 -0.00000300428 C -0.0145676 -0.00804702 -0.00804702 -0.0145676 -0.00000300428 -0.0145676 C 0.00804101 -0.0145676 0.0145688 -0.00804702 0.0145688 -0.00000300428 Z M 0.0145688 -0.00000300428 " transform="matrix(548.73889,0,0,548.73889,25.630555,25.630555)"/>
<path style="fill-rule:nonzero;fill:rgb(91.249519%,75.109573%,39.184929%);fill-opacity:1;stroke-width:0.00291319;stroke-linecap:butt;stroke-linejoin:miter;stroke:rgb(91.249519%,75.109573%,39.184929%);stroke-opacity:1;stroke-miterlimit:10;" d="M 0.0145688 -0.00000300428 C 0.0145688 0.00804101 0.00804101 0.0145688 -0.00000300428 0.0145688 C -0.00804702 0.0145688 -0.0145676 0.00804101 -0.0145676 -0.00000300428 C -0.0145676 -0.00804702 -0.00804702 -0.0145676 -0.00000300428 -0.0145676 C 0.00804101 -0.0145676 0.0145688 -0.00804702 0.0145688 -0.00000300428 Z M 0.0145688 -0.00000300428 " transform="matrix(548.73889,0,0,548.73889,25.630555,25.630555)"/>
<path style="fill-rule:nonzero;fill:rgb(55.294118%,82.745098%,78.039216%);fill-opacity:1;stroke-width:0.00291319;stroke-linecap:butt;stroke-linejoin:miter;stroke:rgb(55.294118%,82.745098%,78.039216%);stroke-opacity:1;stroke-miterlimit:10;" d="M 0.0145688 -0.00000300428 C 0.0145688 0.00804101 0.00804101 0.0145688 -0.00000300428 0.0145688 C -0.00804702 0.0145688 -0.0145676 0.00804101 -0.0145676 -0.00000300428 C -0.0145676 -0.00804702 -0.00804702 -0.0145676 -0.00000300428 -0.0145676 C 0.00804101 -0.0145676 0.0145688 -0.00804702 0.0145688 -0.00000300428 Z M 0.0145688 -0.00000300428 " transform="matrix(548.73889,0,0,548.73889,25.630555,25.630555)"/>
<path style="fill-rule:nonzero;fill:rgb(84.359862%,63.575548%,68.696655%);fill-opacity:1;stroke-width:0.00291319;stroke-linecap:butt;stroke-linejoin:miter;stroke:rgb(84.359862%,63.575548%,68.696655%);stroke-opacity:1;stroke-miterlimit:10;" d="M 0.0145688 -0.00000300428 C 0.0145688 0.00804101 0.00804101 0.0145688 -0.00000300428 0.0145688 C -0.00804702 0.0145688 -0.0145676 0.00804101 -0.0145676 -0.00000300428 C -0.0145676 -0.00804702 -0.00804702 -0.0145676 -0.00000300428 -0.0145676 C 0.00804101 -0.0145676 0.0145688 -0.00804702 0.0145688 -0.00000300428 Z M 0.0145688 -0.00000300428 " transform="matrix(548.73889,0,0,548.73889,25.630555,25.630555)"/>
<path style="fill-rule:nonzero;fill:rgb(100%,92.941176%,43.529412%);fill-opacity:1;stroke-width:0.00291319;stroke-linecap:butt;stroke-linejoin:miter;stroke:rgb(100%,92.941176%,43.529412%);stroke-opacity:1;stroke-miterlimit:10;" d="M 0.0145688 -0.00000300428 C 0.0145688 0.00804101 0.00804101 0.0145688 -0.00000300428 0.0145688 C -0.00804702 0.0145688 -0.0145676 0.00804101 -0.0145676 -0.00000300428 C -0.0145676 -0.00804702 -0.00804702 -0.0145676 -0.00000300428 -0.0145676 C 0.00804101 -0.0145676 0.0145688 -0.00804702 0.0145688 -0.00000300428 Z M 0.0145688 -0.00000300428 " transform="matrix(548.73889,0,0,548.73889,25.630555,25.630555)"/>
<path style="fill-rule:nonzero;fill:rgb(55.294118%,82.745098%,78.039216%);fill-opacity:1;stroke-width:0.00291319;stroke-linecap:butt;stroke-linejoin:miter;stroke:rgb(55.294118%,82.745098%,78.039216%);stroke-opacity:1;stroke-miterlimit:10;" d="M 0.0145688 -0.00000300428 C 0.0145688 0.00804101 0.00804101 0.0145688 -0.00000300428 0.0145688 C -0.00804702 0.0145688 -0.0145676 0.00804101 -0.0145676 -0.00000300428 C -0.0145676 -0.00804702 -0.00804702 -0.0145676 -0.00000300428 -0.0145676 C 0.00804101 -0.0145676 0.0145688 -0.00804702 0.0145688 -0.00000300428 Z M 0.0145688 -0.00000300428 " transform="matrix(548.73889,0,0,548.73889,25.630555,25.630555)"/>
<path style="fill-rule:nonzero;fill:rgb(77.416378%,74.878893%,75.963091%);fill-opacity:1;stroke-width:0.00291319;stroke-linecap:butt;stroke-linejoin:miter;stroke:rgb(77.416378%,74.878893%,75.963091%);stroke-opacity:1;stroke-miterlimit:10;" d="M 0.0145688 -0.00000300428 C 0.0145688 0.00804101 0.00804101 0.0145688 -0.00000300428 0.0145688 C -0.00804702 0.0145688 -0.0145676 0.00804101 -0.0145676 -0.00000300428 C -0.0145676 -0.00804702 -0.00804702 -0.0145676 -0.00000300428 -0.0145676 C 0.00804101 -0.0145676 0.0145688 -0.00804702 0.0145688 -0.00000300428 Z M 0.0145688 -0.00000300428 " transform="matrix(548.73889,0,0,548.73889,25.630555,25.630555)"/>
<path style="fill-rule:nonzero;fill:rgb(83.537101%,80.307574%,83.590927%);fill-opacity:1;stroke-width:0.00291319;stroke-linecap:butt;stroke-linejoin:miter;stroke:rgb(83.537101%,80.307574%,83.590927%);stroke-opacity:1;stroke-miterlimit:10;" d="M 0.0145688 -0.00000300428 C 0.0145688 0.00804101 0.00804101 0.0145688 -0.00000300428 0.0145688 C -0.00804702 0.0145688 -0.0145676 0.00804101 -0.0145676 -0.00000300428 C -0.0145676 -0.00804702 -0.00804702 -0.0145676 -0.00000300428 -0.0145676 C 0.00804101 -0.0145676 0.0145688 -0.00804702 0.0145688 -0.00000300428 Z M 0.0145688 -0.00000300428 " transform="matrix(548.73889,0,0,548.73889,25.630555,25.630555)"/>
<path style="fill-rule:nonzero;fill:rgb(100%,92.941176%,43.529412%);fill-opacity:1;stroke-width:0.00291319;stroke-linecap:butt;stroke-linejoin:miter;stroke:rgb(100%,92.941176%,43.529412%);stroke-opacity:1;stroke-miterlimit:10;" d="M 0.0145688 -0.00000300428 C 0.0145688 0.00804101 0.00804101 0.0145688 -0.00000300428 0.0145688 C -0.00804702 0.0145688 -0.0145676 0.00804101 -0.0145676 -0.00000300428 C -0.0145676 -0.00804702 -0.00804702 -0.0145676 -0.00000300428 -0.0145676 C 0.00804101 -0.0145676 0.0145688 -0.00804702 0.0145688 -0.00000300428 Z M 0.0145688 -0.00000300428 " transform="matrix(548.73889,0,0,548.73889,25.630555,25.630555)"/>
</g>
</svg>
